<?xml version="1.0" encoding="iso-8859-1"?>
<!-- Generator: Adobe Illustrator 19.0.0, SVG Export Plug-In . SVG Version: 6.00 Build 0)  -->
<svg version="1.1" id="Capa_1" xmlns="http://www.w3.org/2000/svg" xmlns:xlink="http://www.w3.org/1999/xlink" x="0px" y="0px"
	 viewBox="0 0 512 512" style="enable-background:new 0 0 512 512;" xml:space="preserve">
<path style="fill:#BF7341;" d="M441.379,247.172H132.414c-39,0-70.621,31.62-70.621,70.621v141.241h432.552
	c9.754,0,17.655-7.901,17.655-17.655V317.793C512,278.793,480.38,247.172,441.379,247.172z"/>
<path style="fill:#B56D3E;" d="M325.332,459.034h169.013c9.754,0,17.655-7.901,17.655-17.655V317.793
	c-0.009-8.916-1.704-17.743-5.014-26.024C459.193,387.646,378.218,436.286,325.332,459.034z"/>
<path style="fill:#E6CCAF;" d="M256,247.172H132.414c-39,0-70.621,31.62-70.621,70.621v123.586c0,9.754,7.901,17.655,17.655,17.655
	h229.517c9.754,0,17.655-7.901,17.655-17.655V317.793C326.621,278.793,295,247.172,256,247.172z"/>
<path style="fill:#F0DBC2;" d="M194.207,300.138H70.621c-39,0-70.621,31.62-70.621,70.621v123.586C0,504.099,7.901,512,17.655,512
	h229.517c9.754,0,17.655-7.901,17.655-17.655V370.759C264.828,331.758,233.207,300.138,194.207,300.138z"/>
<g>
	
		<rect x="393.575" y="353.108" transform="matrix(-0.7071 0.7071 -0.7071 -0.7071 949.1105 330.7365)" style="fill:#965735;" width="24.964" height="17.655"/>
	
		<rect x="450.196" y="305.279" transform="matrix(-0.7071 0.7071 -0.7071 -0.7071 1008.2939 217.8736)" style="fill:#965735;" width="17.655" height="24.964"/>
	
		<rect x="349.444" y="282.485" transform="matrix(-0.7071 0.7071 -0.7071 -0.7071 823.8346 241.3808)" style="fill:#965735;" width="24.964" height="17.655"/>
	
		<rect x="353.101" y="393.582" transform="matrix(-0.7071 0.7071 -0.7071 -0.7071 904.9813 437.2735)" style="fill:#965735;" width="17.655" height="24.964"/>
	
		<rect x="450.196" y="393.564" transform="matrix(-0.7071 0.7071 -0.7071 -0.7071 1070.7206 368.585)" style="fill:#965735;" width="17.655" height="24.964"/>
</g>
<g>
	<path style="fill:#F09E3E;" d="M229.517,26.483h17.655c19.5,0,35.31,15.81,35.31,35.31v17.655l0,0h-17.655
		c-19.5,0-35.31-15.81-35.31-35.31V26.483L229.517,26.483z"/>
	<path style="fill:#F09E3E;" d="M273.655,176.552v-17.655c0-19.5,15.81-35.31,35.31-35.31h17.655l0,0v17.655
		c0,19.5-15.81,35.31-35.31,35.31H273.655L273.655,176.552z"/>
</g>
<path style="fill:#D68033;" d="M158.897,167.724v-17.655c0-19.5,15.81-35.31,35.31-35.31h17.655l0,0v17.655
	c0,19.5-15.81,35.31-35.31,35.31H158.897L158.897,167.724z"/>
<path style="fill:#F09E3E;" d="M379.586,88.276L379.586,88.276c-9.754,0-17.655-7.901-17.655-17.655V17.655h17.655V88.276z"/>
<g>
	<path style="fill:#D68033;" d="M467.862,88.276L467.862,88.276V17.655h17.655v52.966C485.517,80.375,477.617,88.276,467.862,88.276
		z"/>
	<rect x="414.897" y="211.862" style="fill:#D68033;" width="17.655" height="97.103"/>
</g>
<path style="fill:#F09E3E;" d="M370.759,52.966h17.655c19.5,0,35.31,15.81,35.31,35.31v17.655l0,0h-17.655
	c-19.5,0-35.31-15.81-35.31-35.31V52.966L370.759,52.966z"/>
<path style="fill:#D68033;" d="M370.759,105.931h17.655c19.5,0,35.31,15.81,35.31,35.31v17.655l0,0h-17.655
	c-19.5,0-35.31-15.81-35.31-35.31V105.931L370.759,105.931z"/>
<path style="fill:#F09E3E;" d="M370.759,158.897h17.655c19.5,0,35.31,15.81,35.31,35.31v17.655l0,0h-17.655
	c-19.5,0-35.31-15.81-35.31-35.31V158.897L370.759,158.897z"/>
<path style="fill:#D68033;" d="M441.379,105.931h-17.655l0,0V88.276c0-19.5,15.81-35.31,35.31-35.31h17.655l0,0v17.655
	C476.69,90.121,460.879,105.931,441.379,105.931z"/>
<path style="fill:#F09E3E;" d="M441.379,158.897h-17.655l0,0v-17.655c0-19.5,15.81-35.31,35.31-35.31h17.655l0,0v17.655
	C476.69,143.086,460.879,158.897,441.379,158.897z"/>
<path style="fill:#D68033;" d="M441.379,211.862h-17.655l0,0v-17.655c0-19.5,15.81-35.31,35.31-35.31h17.655l0,0v17.655
	C476.69,196.052,460.879,211.862,441.379,211.862z"/>
<path style="fill:#F09E3E;" d="M423.724,70.621L423.724,70.621c-19.5-13.003-24.77-39.362-11.758-58.862
	c3.107-4.652,7.097-8.651,11.758-11.758l0,0c19.5,13.003,24.77,39.362,11.758,58.862C432.375,63.514,428.385,67.513,423.724,70.621z
	"/>
<rect x="273.653" y="296.486" transform="matrix(-0.7071 0.7071 -0.7071 -0.7071 700.6971 327.6981)" style="fill:#D4B99B;" width="17.655" height="24.964"/>
<g>
	
		<rect x="111.107" y="335.444" transform="matrix(-0.7071 0.7071 -0.7071 -0.7071 454.416 500.3176)" style="fill:#E6CCAF;" width="24.964" height="17.655"/>
	
		<rect x="79.487" y="464.202" transform="matrix(-0.7071 0.7071 -0.7071 -0.7071 487.8293 751.3032)" style="fill:#E6CCAF;" width="17.655" height="24.964"/>
	
		<rect x="35.329" y="393.597" transform="matrix(-0.7071 0.7071 -0.7071 -0.7071 362.5208 661.9963)" style="fill:#E6CCAF;" width="17.655" height="24.964"/>
	
		<rect x="211.887" y="367.085" transform="matrix(-0.7071 0.7071 -0.7071 -0.7071 645.1772 491.8924)" style="fill:#E6CCAF;" width="17.655" height="24.964"/>
	
		<rect x="172.896" y="414.894" transform="matrix(-0.7071 0.7071 -0.7071 -0.7071 616.0771 592.2555)" style="fill:#E6CCAF;" width="24.964" height="17.655"/>
</g>
<g>
</g>
<g>
</g>
<g>
</g>
<g>
</g>
<g>
</g>
<g>
</g>
<g>
</g>
<g>
</g>
<g>
</g>
<g>
</g>
<g>
</g>
<g>
</g>
<g>
</g>
<g>
</g>
<g>
</g>
</svg>
