<?xml version="1.0" encoding="iso-8859-1"?>
<!-- Generator: Adobe Illustrator 19.0.0, SVG Export Plug-In . SVG Version: 6.00 Build 0)  -->
<svg version="1.1" id="Capa_1" xmlns="http://www.w3.org/2000/svg" xmlns:xlink="http://www.w3.org/1999/xlink" x="0px" y="0px"
	 viewBox="0 0 512 512" style="enable-background:new 0 0 512 512;" xml:space="preserve">
<path style="fill:#E6CCAF;" d="M459.034,0H194.207c-29.255,0-52.966,23.711-52.966,52.966l0,0c0,29.255,23.711,52.966,52.966,52.966
	v229.517h264.828V105.931c29.255,0,52.966-23.711,52.966-52.966l0,0C512,23.711,488.289,0,459.034,0z"/>
<g>
	
		<rect x="213.087" y="66.216" transform="matrix(-0.7071 0.7071 -0.7071 -0.7071 512.7283 -62.2929)" style="fill:#D4B99B;" width="112.356" height="17.655"/>
	
		<rect x="191.128" y="119.206" transform="matrix(-0.7071 0.7071 -0.7071 -0.7071 640.5764 -9.2683)" style="fill:#D4B99B;" width="262.159" height="17.655"/>
	
		<rect x="221.299" y="216.251" transform="matrix(-0.7071 0.7071 -0.7071 -0.7071 739.3946 143.8896)" style="fill:#D4B99B;" width="237.195" height="17.655"/>
	
		<rect x="370.441" y="269.253" transform="matrix(-0.7071 0.7071 -0.7071 -0.7071 882.2857 190.7063)" style="fill:#D4B99B;" width="62.41" height="17.655"/>
</g>
<path style="fill:#F0DBC2;" d="M317.793,176.552H52.966C23.711,176.552,0,200.263,0,229.517l0,0
	c0,29.255,23.711,52.966,52.966,52.966V512h264.828V282.483c29.255,0,52.966-23.711,52.966-52.966l0,0
	C370.759,200.263,347.048,176.552,317.793,176.552z"/>
<g>
	
		<rect x="79.981" y="392.888" transform="matrix(-0.7071 0.7071 -0.7071 -0.7071 623.0511 545.3548)" style="fill:#E6CCAF;" width="237.195" height="17.655"/>
	
		<rect x="71.816" y="242.762" transform="matrix(-0.7071 0.7071 -0.7071 -0.7071 396.3999 338.9853)" style="fill:#E6CCAF;" width="112.356" height="17.655"/>
	
		<rect x="49.882" y="295.719" transform="matrix(-0.7071 0.7071 -0.7071 -0.7071 524.2667 391.9345)" style="fill:#E6CCAF;" width="262.159" height="17.655"/>
	
		<rect x="229.194" y="445.801" transform="matrix(-0.7071 0.7071 -0.7071 -0.7071 766.001 591.9694)" style="fill:#E6CCAF;" width="62.41" height="17.655"/>
</g>
<g>
</g>
<g>
</g>
<g>
</g>
<g>
</g>
<g>
</g>
<g>
</g>
<g>
</g>
<g>
</g>
<g>
</g>
<g>
</g>
<g>
</g>
<g>
</g>
<g>
</g>
<g>
</g>
<g>
</g>
</svg>
