<?xml version="1.0" encoding="iso-8859-1"?>
<!-- Generator: Adobe Illustrator 19.0.0, SVG Export Plug-In . SVG Version: 6.00 Build 0)  -->
<svg version="1.1" id="Capa_1" xmlns="http://www.w3.org/2000/svg" xmlns:xlink="http://www.w3.org/1999/xlink" x="0px" y="0px"
	 viewBox="0 0 511.996 511.996" style="enable-background:new 0 0 511.996 511.996;" xml:space="preserve">
<g>
	<path style="fill:#D68033;" d="M476.205,0.279c-11.451,0-22.021,5.285-28.187,14.093L388.122,97.17l26.425,26.425l82.798-59.896
		c15.855-11.451,19.378-33.472,7.927-49.326C498.226,5.564,487.656,0.279,476.205,0.279z"/>
	<path style="fill:#D68033;" d="M14.651,447.74c-15.855,11.451-19.378,33.472-7.927,49.326
		c11.451,15.855,33.472,19.378,49.326,7.927c2.642-1.762,5.285-4.404,7.927-7.927l59.896-82.798l-26.425-26.425L14.651,447.74z"/>
</g>
<rect x="44.14" y="192.987" transform="matrix(-0.7071 0.7071 -0.7071 -0.7071 617.3529 254.4542)" style="fill:#F09E3E;" width="423.675" height="124.196"/>
<path style="fill:#F09235;" d="M83.355,382.559l66.943,66.943L449.781,150.02l-42.28-42.28
	C325.584,226.652,213.718,321.782,83.355,382.559z"/>
<g>
	
		<rect x="370.199" y="69.972" transform="matrix(-0.7071 0.7071 -0.7071 -0.7071 740.3937 -42.5414)" style="fill:#D68033;" width="17.616" height="124.196"/>
	
		<rect x="123.584" y="316.61" transform="matrix(-0.7071 0.7071 -0.7071 -0.7071 493.7951 552.8783)" style="fill:#D68033;" width="17.616" height="124.196"/>
</g>
<g>
</g>
<g>
</g>
<g>
</g>
<g>
</g>
<g>
</g>
<g>
</g>
<g>
</g>
<g>
</g>
<g>
</g>
<g>
</g>
<g>
</g>
<g>
</g>
<g>
</g>
<g>
</g>
<g>
</g>
</svg>
