<?xml version="1.0" encoding="iso-8859-1"?>
<!-- Generator: Adobe Illustrator 19.0.0, SVG Export Plug-In . SVG Version: 6.00 Build 0)  -->
<svg version="1.1" id="Capa_1" xmlns="http://www.w3.org/2000/svg" xmlns:xlink="http://www.w3.org/1999/xlink" x="0px" y="0px"
	 viewBox="0 0 512.007 512.007" style="enable-background:new 0 0 512.007 512.007;" xml:space="preserve">
<g>
	<path style="fill:#F09E3E;" d="M248.288,310.078c-9.278-9.357-17.32-19.862-23.923-31.267L78.498,424.678l-37.455,37.455
		l-7.247,7.247c-9.754,9.754-9.754,25.556,0,35.31s25.556,9.754,35.31,0l11.476-11.476l40.06-40.06l135.362-135.362L248.288,310.078
		z"/>
	<path style="fill:#F09E3E;" d="M512.003,154.483C512.092,69.252,443.069,0.088,357.838,0
		c-37.464-0.035-73.657,13.55-101.835,38.232c13.409,11.688,24.717,25.6,33.412,41.119c41.419-37.685,105.551-34.648,143.236,6.771
		c17.011,18.697,26.421,43.079,26.386,68.361v203.034c0.009,24.761-9.075,48.658-25.529,67.16l37.455,37.455
		c26.386-28.451,41.048-65.819,41.039-104.616V154.483z"/>
	<path style="fill:#F09E3E;" d="M391.348,453.138c-10.858,3.884-22.298,5.879-33.827,5.897H154.486
		c-11.529-0.018-22.969-2.013-33.827-5.897l-40.06,40.06c22.66,12.367,48.066,18.838,73.887,18.803h203.034
		c25.821,0.035,51.227-6.435,73.887-18.803L391.348,453.138z"/>
	<path style="fill:#F09E3E;" d="M478.211,469.38l-7.247-7.247l-37.455-37.455L287.641,278.811l-1.907-1.907
		c-19.032-19.041-29.731-44.862-29.731-71.777v-50.644c0-28.646-12.138-55.949-33.412-75.132
		c-12.835,22.961-19.571,48.825-19.553,75.132v46.354c0.274,40.916,16.508,80.119,45.25,109.241l7.715,7.715l135.345,135.345
		l40.06,40.06l11.476,11.476c9.754,9.754,25.556,9.754,35.31,0s9.754-25.556,0-35.31L478.211,469.38z"/>
	<path style="fill:#F09E3E;" d="M289.416,79.351C247.873,4.829,153.78-21.901,79.257,19.641
		C30.361,46.91,0.039,98.498,0.003,154.483v203.034c-0.009,38.797,14.654,76.173,41.039,104.616l37.455-37.455
		c-16.455-18.503-25.538-42.408-25.529-67.16V154.483c0-56.073,45.453-101.517,101.517-101.517S256.003,98.41,256.003,154.483
		v50.644c0,26.924,10.699,52.736,29.731,71.777l1.907,1.907c13.912-23.631,21.275-50.547,21.327-77.974v-46.354
		C308.986,128.177,302.251,102.312,289.416,79.351z"/>
</g>
<g>
	<rect x="0.003" y="176.552" style="fill:#D68033;" width="26.483" height="17.655"/>
	<rect x="61.796" y="52.966" style="fill:#D68033;" width="17.655" height="17.655"/>
	<rect x="141.245" y="8.828" style="fill:#D68033;" width="17.655" height="17.655"/>
	<rect x="17.658" y="256" style="fill:#D68033;" width="17.655" height="17.655"/>
	<rect x="17.658" y="379.586" style="fill:#D68033;" width="17.655" height="17.655"/>
	<rect x="220.693" y="150.069" style="fill:#D68033;" width="17.655" height="17.655"/>
	<rect x="114.762" y="406.069" style="fill:#D68033;" width="17.655" height="17.655"/>
	<rect x="185.383" y="317.793" style="fill:#D68033;" width="17.655" height="17.655"/>
	<rect x="317.796" y="344.276" style="fill:#D68033;" width="17.655" height="17.655"/>
	<rect x="361.934" y="17.655" style="fill:#D68033;" width="17.655" height="17.655"/>
	<rect x="485.521" y="97.104" style="fill:#D68033;" width="17.655" height="17.655"/>
	<rect x="467.865" y="194.207" style="fill:#D68033;" width="17.655" height="17.655"/>
	<rect x="476.693" y="300.138" style="fill:#D68033;" width="17.655" height="17.655"/>
	<rect x="485.521" y="379.586" style="fill:#D68033;" width="17.655" height="17.655"/>
	<rect x="414.9" y="450.207" style="fill:#D68033;" width="17.655" height="17.655"/>
	<rect x="282.486" y="476.69" style="fill:#D68033;" width="17.655" height="17.655"/>
	<rect x="194.21" y="485.517" style="fill:#D68033;" width="17.655" height="17.655"/>
	<rect x="282.486" y="123.586" style="fill:#D68033;" width="17.655" height="17.655"/>
	<rect x="273.658" y="203.035" style="fill:#D68033;" width="17.655" height="17.655"/>
	<rect x="211.865" y="44.138" style="fill:#D68033;" width="17.655" height="17.655"/>
</g>
<g>
	<path style="fill:#F09235;" d="M236.689,337.108l19.315-19.315l-7.715-7.715c-9.278-9.357-17.32-19.862-23.923-31.267
		l-18.052,18.052C214.364,311.72,224.604,325.288,236.689,337.108z"/>
	<path style="fill:#F09235;" d="M253.408,132.467c-4.529-20.462-15.298-39.027-30.817-53.116c-3.39,6.1-6.365,12.429-8.898,18.935
		C224.665,112.075,238.136,123.675,253.408,132.467z"/>
	<path style="fill:#F09235;" d="M120.659,453.138l-40.06,40.06c7.689,4.184,15.713,7.698,24.002,10.505l39.45-45.277
		C136.072,457.578,128.224,455.804,120.659,453.138z"/>
	<path style="fill:#F09235;" d="M433.508,424.678l37.455,37.455c5.473-5.994,10.47-12.403,14.945-19.165l-40.607-34.781
		C441.921,414.058,437.975,419.575,433.508,424.678z"/>
</g>
<g>
</g>
<g>
</g>
<g>
</g>
<g>
</g>
<g>
</g>
<g>
</g>
<g>
</g>
<g>
</g>
<g>
</g>
<g>
</g>
<g>
</g>
<g>
</g>
<g>
</g>
<g>
</g>
<g>
</g>
</svg>
