<?xml version="1.0" encoding="iso-8859-1"?>
<!-- Generator: Adobe Illustrator 19.0.0, SVG Export Plug-In . SVG Version: 6.00 Build 0)  -->
<svg version="1.1" id="Capa_1" xmlns="http://www.w3.org/2000/svg" xmlns:xlink="http://www.w3.org/1999/xlink" x="0px" y="0px"
	 viewBox="0 0 512 512" style="enable-background:new 0 0 512 512;" xml:space="preserve">
<g>
	<path style="fill:#F2B9B8;" d="M229.517,185.379c0,29.131,23.834,52.966,52.966,52.966h176.552
		c29.131,0,52.966-23.835,52.966-52.966v-17.655H229.517V185.379z"/>
	<path style="fill:#F2B9B8;" d="M459.034,61.793H282.483c-29.131,0-52.966,23.834-52.966,52.966v17.655H512v-17.655
		C512,85.628,488.165,61.793,459.034,61.793z"/>
</g>
<path style="fill:#F5EADF;" d="M247.172,132.414h247.172c9.71,0,17.655,7.945,17.655,17.655l0,0c0,9.71-7.945,17.655-17.655,17.655
	H247.172c-9.71,0-17.655-7.945-17.655-17.655l0,0C229.517,140.359,237.462,132.414,247.172,132.414z"/>
<g>
	<path style="fill:#F2AEAC;" d="M282.483,238.345h176.552c29.131,0,52.966-23.835,52.966-52.966v-17.655H383.117
		c-46.786,33.545-105.048,45.903-142.124,50.317C250.703,231.283,266.593,238.345,282.483,238.345z"/>
	<path style="fill:#F2AEAC;" d="M512,114.759c0-29.131-23.835-52.966-52.966-52.966h-3.531c-6.179,25.6-18.538,50.317-34.428,70.621
		H512V114.759z"/>
</g>
<g>
	<path style="fill:#B8DBE0;" d="M52.966,344.276h176.552c29.131,0,52.966-23.834,52.966-52.966v-17.655H0v17.655
		C0,320.441,23.834,344.276,52.966,344.276z"/>
	<path style="fill:#B8DBE0;" d="M0,220.69v17.655h282.483V220.69c0-29.131-23.835-52.966-52.966-52.966H52.966
		C23.834,167.724,0,191.559,0,220.69z"/>
</g>
<path style="fill:#F5EADF;" d="M17.655,238.345h247.172c9.71,0,17.655,7.945,17.655,17.655l0,0c0,9.71-7.945,17.655-17.655,17.655
	H17.655C7.945,273.655,0,265.71,0,256l0,0C0,246.29,7.945,238.345,17.655,238.345z"/>
<g>
	<path style="fill:#AFD6DB;" d="M52.966,344.276h176.552c29.131,0,52.966-23.834,52.966-52.966v-17.655H153.6
		C105.931,307.2,48.552,319.559,11.476,323.972C21.186,337.214,37.076,344.276,52.966,344.276z"/>
	<path style="fill:#AFD6DB;" d="M282.483,220.69c0-29.131-23.835-52.966-52.966-52.966h-3.531
		c-6.179,25.6-18.538,50.317-34.428,70.621h90.924V220.69z"/>
</g>
<g>
	<path style="fill:#FFCD6B;" d="M229.517,450.207h176.552c29.131,0,52.966-23.835,52.966-52.966v-17.655H176.552v17.655
		C176.552,426.372,200.386,450.207,229.517,450.207z"/>
	<path style="fill:#FFCD6B;" d="M176.552,326.621v17.655h282.483v-17.655c0-29.131-23.835-52.966-52.966-52.966H229.517
		C200.386,273.655,176.552,297.49,176.552,326.621z"/>
</g>
<g>
	<path style="fill:#FFC452;" d="M229.517,450.207h176.552c29.131,0,52.966-23.835,52.966-52.966v-17.655H330.152
		c-46.786,33.545-105.048,45.903-142.124,50.317C197.738,443.145,213.628,450.207,229.517,450.207z"/>
	<path style="fill:#FFC452;" d="M459.034,326.621c0-29.131-23.835-52.966-52.966-52.966h-3.531
		c-6.179,25.6-18.538,50.317-34.428,70.621h90.924V326.621z"/>
</g>
<path style="fill:#F5EADF;" d="M194.207,344.276h247.172c9.71,0,17.655,7.945,17.655,17.655l0,0c0,9.71-7.945,17.655-17.655,17.655
	H194.207c-9.71,0-17.655-7.945-17.655-17.655l0,0C176.552,352.221,184.497,344.276,194.207,344.276z"/>
<g>
</g>
<g>
</g>
<g>
</g>
<g>
</g>
<g>
</g>
<g>
</g>
<g>
</g>
<g>
</g>
<g>
</g>
<g>
</g>
<g>
</g>
<g>
</g>
<g>
</g>
<g>
</g>
<g>
</g>
</svg>
