<?xml version="1.0" encoding="iso-8859-1"?>
<!-- Generator: Adobe Illustrator 19.0.0, SVG Export Plug-In . SVG Version: 6.00 Build 0)  -->
<svg version="1.1" id="Capa_1" xmlns="http://www.w3.org/2000/svg" xmlns:xlink="http://www.w3.org/1999/xlink" x="0px" y="0px"
	 viewBox="0 0 512 512" style="enable-background:new 0 0 512 512;" xml:space="preserve">
<path style="fill:#F09E3E;" d="M52.966,512L52.966,512C23.711,512,0,488.289,0,459.035l0,0l0,0
	c0-79.13,31.435-155.021,87.393-210.979L248.055,87.393C304.013,31.435,379.904,0,459.034,0l0,0C488.289,0,512,23.711,512,52.966
	l0,0c0,79.13-31.435,155.021-87.393,210.979L263.945,424.607C207.987,480.565,132.096,512,52.966,512z"/>
<path style="fill:#F09235;" d="M5.411,402.723C1.827,421.279,0.009,440.135,0,459.035l0,0C0,488.289,23.711,512,52.966,512l0,0
	c79.13,0,155.021-31.435,210.979-87.393l160.662-160.662C480.565,207.987,512,132.096,512,52.966
	c0.018-12.12-4.149-23.87-11.785-33.28C394.946,212.648,169.198,335.448,5.411,402.723z"/>
<g>
	<path style="fill:#D68033;" d="M240.207,229.517h130.551c-22.06,33.086-59.198,52.966-98.966,52.966H141.241
		C163.302,249.397,200.439,229.517,240.207,229.517z"/>
	<path style="fill:#D68033;" d="M337.311,123.586h130.551c-22.06,33.086-59.198,52.966-98.966,52.966H238.345
		C260.405,143.466,297.543,123.586,337.311,123.586z"/>
	<path style="fill:#D68033;" d="M143.104,335.448h130.551c-22.06,33.086-59.198,52.966-98.966,52.966H44.138
		C66.198,355.328,103.336,335.448,143.104,335.448z"/>
</g>
<g>
</g>
<g>
</g>
<g>
</g>
<g>
</g>
<g>
</g>
<g>
</g>
<g>
</g>
<g>
</g>
<g>
</g>
<g>
</g>
<g>
</g>
<g>
</g>
<g>
</g>
<g>
</g>
<g>
</g>
</svg>
