<?xml version="1.0" encoding="iso-8859-1"?>
<!-- Generator: Adobe Illustrator 19.0.0, SVG Export Plug-In . SVG Version: 6.00 Build 0)  -->
<svg version="1.1" id="Capa_1" xmlns="http://www.w3.org/2000/svg" xmlns:xlink="http://www.w3.org/1999/xlink" x="0px" y="0px"
	 viewBox="0 0 512.002 512.002" style="enable-background:new 0 0 512.002 512.002;" xml:space="preserve">
<path style="fill:#F2B9B8;" d="M351.829,177.848c34.845-52.93,20.185-124.086-32.736-158.931S195.007-1.269,160.162,51.661
	c-25.207,38.287-25.207,87.899,0,126.186c-13.98,4.157-21.942,18.852-17.793,32.833c3.336,11.218,13.654,18.905,25.366,18.888
	h176.521c14.581,0.026,26.425-11.774,26.461-26.355C370.734,191.51,363.056,181.184,351.829,177.848z"/>
<polygon style="fill:#D68033;" points="255.995,512.002 167.735,229.568 344.256,229.568 "/>
<path style="fill:#F09E3E;" d="M167.735,229.568l88.261,282.434l35.613-113.945c21.403-68.384-16.69-141.173-85.074-162.567
	C193.975,231.563,180.894,229.568,167.735,229.568z"/>
<g>
	<rect x="211.83" y="291.351" style="fill:#C96E23;" width="17.652" height="17.652"/>
	<rect x="211.83" y="256.046" style="fill:#C96E23;" width="17.652" height="17.652"/>
	<rect x="211.83" y="326.655" style="fill:#C96E23;" width="17.652" height="17.652"/>
	<rect x="247.134" y="326.655" style="fill:#C96E23;" width="17.652" height="17.652"/>
	<rect x="247.134" y="361.959" style="fill:#C96E23;" width="17.652" height="17.652"/>
	<rect x="247.134" y="397.263" style="fill:#C96E23;" width="17.652" height="17.652"/>
	<rect x="247.134" y="432.568" style="fill:#C96E23;" width="17.652" height="17.652"/>
	<rect x="247.134" y="291.351" style="fill:#C96E23;" width="17.652" height="17.652"/>
	<polygon style="fill:#C96E23;" points="229.517,361.959 211.865,361.959 211.865,370.785 214.619,379.611 229.517,379.611 	"/>
</g>
<g>
	<path style="fill:#965735;" d="M300.126,309.003v-17.652h-17.652v7.423c1.765,3.336,3.416,6.743,4.89,10.229H300.126z"/>
	<polygon style="fill:#965735;" points="335.43,256.046 317.778,256.046 317.778,273.699 330.461,273.699 335.43,257.812 	"/>
	<rect x="282.438" y="256.046" style="fill:#965735;" width="17.652" height="17.652"/>
</g>
<path style="fill:#F2AEAC;" d="M351.829,177.848c34.81-52.824,20.212-123.865-32.603-158.675c-1.977-1.306-3.998-2.542-6.055-3.725
	c-3.222,121.694-70.061,183.803-123.486,214.12h154.571c14.581,0.026,26.425-11.774,26.461-26.355
	C370.734,191.51,363.056,181.184,351.829,177.848z"/>
<g>
</g>
<g>
</g>
<g>
</g>
<g>
</g>
<g>
</g>
<g>
</g>
<g>
</g>
<g>
</g>
<g>
</g>
<g>
</g>
<g>
</g>
<g>
</g>
<g>
</g>
<g>
</g>
<g>
</g>
</svg>
