<?xml version="1.0" encoding="iso-8859-1"?>
<!-- Generator: Adobe Illustrator 19.0.0, SVG Export Plug-In . SVG Version: 6.00 Build 0)  -->
<svg version="1.1" id="Capa_1" xmlns="http://www.w3.org/2000/svg" xmlns:xlink="http://www.w3.org/1999/xlink" x="0px" y="0px"
	 viewBox="0 0 512 512" style="enable-background:new 0 0 512 512;" xml:space="preserve">
<path style="fill:#FFCD6B;" d="M169.735,70.621v97.103c0,9.754,7.901,17.655,17.655,17.655c9.754,0,17.655-7.901,17.655-17.655
	c0-9.754,7.901-17.655,17.655-17.655c9.754,0,17.655,7.901,17.655,17.655v8.828c0,9.754,7.901,17.655,17.655,17.655
	c9.754,0,17.655-7.901,17.655-17.655V70.621H169.735z"/>
<path style="fill:#965735;" d="M461.045,35.31H284.494v35.31h176.552c9.754,0,17.655-7.901,17.655-17.655
	S470.791,35.31,461.045,35.31z"/>
<g>
	<path style="fill:#F0DBC2;" d="M72.631,229.517h300.138c14.627,0,26.483,11.855,26.483,26.483l0,0
		c0,14.627-11.855,26.483-26.483,26.483H72.631c-14.627,0-26.483-11.855-26.483-26.483l0,0
		C46.149,241.373,58.004,229.517,72.631,229.517z"/>
	<path style="fill:#F0DBC2;" d="M363.942,512H81.459l-28.063-47.669c-35.063-59.577-23.331-135.609,28.063-181.848h282.483
		c51.394,46.239,63.126,122.271,28.063,181.848L363.942,512z"/>
</g>
<path style="fill:#BF7341;" d="M205.045,0h35.31c29.255,0,52.966,23.711,52.966,52.966l0,0c0,29.255-23.711,52.966-52.966,52.966
	h-35.31c-29.255,0-52.966-23.711-52.966-52.966l0,0C152.08,23.711,175.791,0,205.045,0z"/>
<g>
	<path style="fill:#FFCD6B;" d="M407.065,353.103H38.336c-10.099,37.597-4.67,77.674,15.06,111.228L81.459,512h282.483
		l28.063-47.669C411.734,430.777,417.163,390.7,407.065,353.103z"/>
	<rect x="213.89" style="fill:#FFCD6B;" width="17.655" height="105.931"/>
	<path style="fill:#FFCD6B;" d="M178.562,7.142V98.79c5.455,3.16,11.441,5.305,17.655,6.347V0.794
		C189.994,1.836,184.018,3.981,178.562,7.142z"/>
	<path style="fill:#FFCD6B;" d="M249.183,0.794v104.342c6.215-1.042,12.2-3.187,17.655-6.347V7.142
		C261.374,3.981,255.398,1.836,249.183,0.794z"/>
</g>
<path style="fill:#E6CCAF;" d="M363.942,291.31H125.597c-4.873,0-8.828-3.955-8.828-8.828s3.955-8.828,8.828-8.828h238.345
	c4.873,0,8.828,3.955,8.828,8.828S368.815,291.31,363.942,291.31z"/>
<path style="fill:#FFB75E;" d="M407.065,353.103h-79.448C308.249,424.165,257.693,482.604,190.162,512h173.78l28.063-47.669
	C411.734,430.777,417.163,390.7,407.065,353.103z"/>
<g>
</g>
<g>
</g>
<g>
</g>
<g>
</g>
<g>
</g>
<g>
</g>
<g>
</g>
<g>
</g>
<g>
</g>
<g>
</g>
<g>
</g>
<g>
</g>
<g>
</g>
<g>
</g>
<g>
</g>
</svg>
