<?xml version="1.0" encoding="iso-8859-1"?>
<!-- Generator: Adobe Illustrator 19.0.0, SVG Export Plug-In . SVG Version: 6.00 Build 0)  -->
<svg version="1.1" id="Capa_1" xmlns="http://www.w3.org/2000/svg" xmlns:xlink="http://www.w3.org/1999/xlink" x="0px" y="0px"
	 viewBox="0 0 512.002 512.002" style="enable-background:new 0 0 512.002 512.002;" xml:space="preserve">
<g>
	<circle style="fill:#FFCD6B;" cx="379.587" cy="61.795" r="26.483"/>
	<circle style="fill:#FFCD6B;" cx="44.139" cy="300.14" r="26.483"/>
	<circle style="fill:#FFCD6B;" cx="220.691" cy="379.588" r="26.483"/>
	<circle style="fill:#FFCD6B;" cx="167.725" cy="185.381" r="26.483"/>
	<circle style="fill:#FFCD6B;" cx="406.07" cy="220.692" r="26.483"/>
	<circle style="fill:#FFCD6B;" cx="361.932" cy="326.623" r="26.483"/>
	<circle style="fill:#FFCD6B;" cx="247.173" cy="485.519" r="26.483"/>
</g>
<g>
	<path style="fill:#BF7341;" d="M494.346,164.698L494.346,164.698c0,8.916-7.221,16.137-16.137,16.137l0,0
		c-13.647,0-26.739-5.42-36.387-15.069l-7.309-7.309c-9.649-9.649-15.069-22.74-15.069-36.387v-16.137h16.137
		c13.647,0,26.73,5.42,36.378,15.069l7.318,7.318C488.926,137.968,494.346,151.06,494.346,164.698z"/>
	<path style="fill:#BF7341;" d="M272.138,185.381L272.138,185.381c-8.907,0-16.128-7.221-16.137-16.137l0,0
		c0-13.647,5.42-26.739,15.069-36.387l7.318-7.309c9.649-9.649,22.731-15.069,36.378-15.069h16.137v16.137
		c0,13.647-5.42,26.73-15.069,36.378l-7.309,7.318C298.877,179.961,285.785,185.381,272.138,185.381z"/>
	<path style="fill:#BF7341;" d="M272.138,300.14L272.138,300.14c-8.907,0-16.128-7.221-16.137-16.137l0,0
		c0-13.647,5.42-26.739,15.069-36.387l7.318-7.309c9.649-9.649,22.731-15.069,36.378-15.069h16.137v16.137
		c0,13.647-5.42,26.73-15.069,36.378l-7.309,7.318C298.877,294.72,285.785,300.14,272.138,300.14z"/>
	<path style="fill:#BF7341;" d="M73.208,209.278L73.208,209.278c-6.303,6.303-16.525,6.303-22.828,0l0,0
		c-9.649-9.649-15.069-22.731-15.069-36.378v-10.346c0-13.647,5.42-26.73,15.069-36.378l11.414-11.414l11.414,11.414
		c9.649,9.649,15.069,22.74,15.069,36.378v10.346C88.277,186.547,82.857,199.629,73.208,209.278z"/>
	<path style="fill:#BF7341;" d="M136.696,438.353L136.696,438.353c0.009,8.907-7.212,16.128-16.119,16.137c-0.009,0-0.009,0-0.018,0
		l0,0c-13.647,0-26.73-5.42-36.378-15.069l-7.318-7.309c-9.649-9.649-15.069-22.74-15.069-36.387v-16.137h16.137
		c13.647,0,26.739,5.42,36.387,15.069l7.309,7.318C131.276,411.623,136.696,424.715,136.696,438.353z"/>
</g>
<g>
	<path style="fill:#F09E3E;" d="M161.811,132.416L161.811,132.416c-15.281,0-28.319-11.043-30.835-26.121l0,0
		c-2.966-17.77-2.966-35.919,0-53.689l0,0c2.516-15.069,15.554-26.121,30.835-26.121l0,0c13.1,0.106,23.631,10.805,23.534,23.905
		c-0.035,4.617-1.421,9.128-3.99,12.977l-0.547,0.83c-6.162,9.234-6.162,21.274,0,30.508l0.547,0.83
		c7.274,10.902,4.326,25.626-6.568,32.892C170.938,130.995,166.436,132.38,161.811,132.416z"/>
	<path style="fill:#F09E3E;" d="M236.059,84.067L236.059,84.067c-10.814-10.805-12.226-27.842-3.337-40.28l0,0
		c10.47-14.663,23.296-27.489,37.959-37.959l0,0c12.438-8.889,29.475-7.477,40.28,3.328l0,0c9.19,9.34,9.066,24.364-0.274,33.554
		c-3.293,3.24-7.459,5.447-11.988,6.356l-0.971,0.194c-10.884,2.18-19.394,10.69-21.575,21.575l-0.194,0.971
		c-2.578,12.853-15.078,21.177-27.93,18.609C243.51,89.505,239.352,87.307,236.059,84.067z"/>
	<path style="fill:#F09E3E;" d="M470.776,388.416L470.776,388.416c-15.281,0-28.319-11.043-30.835-26.121l0,0
		c-2.966-17.77-2.966-35.919,0-53.689l0,0c2.516-15.069,15.554-26.121,30.835-26.121l0,0c13.1,0.106,23.631,10.805,23.534,23.905
		c-0.035,4.617-1.421,9.128-3.99,12.977l-0.547,0.83c-6.162,9.234-6.162,21.274,0,30.508l0.547,0.83
		c7.274,10.902,4.326,25.626-6.568,32.892C479.904,386.995,475.402,388.38,470.776,388.416z"/>
	<path style="fill:#F09E3E;" d="M313.177,397.57L313.177,397.57c10.805-10.805,27.842-12.217,40.28-3.328l0,0
		c14.663,10.47,27.489,23.296,37.959,37.959l0,0c8.889,12.438,7.477,29.475-3.328,40.28l0,0c-9.34,9.19-24.364,9.066-33.554-0.274
		c-3.24-3.293-5.447-7.459-6.356-11.988l-0.194-0.971c-2.172-10.893-10.681-19.403-21.575-21.575l-0.971-0.194
		c-12.853-2.569-21.186-15.069-18.617-27.922C307.731,405.029,309.938,400.863,313.177,397.57z"/>
	<path style="fill:#F09E3E;" d="M196.494,254.007L196.494,254.007c10.814,10.805,12.226,27.842,3.337,40.28l0,0
		c-10.47,14.663-23.296,27.489-37.959,37.959l0,0c-12.438,8.889-29.475,7.477-40.28-3.337l0,0
		c-9.19-9.348-9.057-24.373,0.291-33.554c3.293-3.231,7.45-5.438,11.97-6.347l0.971-0.194c10.884-2.18,19.394-10.69,21.575-21.575
		l0.194-0.971c2.578-12.853,15.078-21.177,27.93-18.609C189.044,248.569,193.202,250.776,196.494,254.007z"/>
</g>
<g>
</g>
<g>
</g>
<g>
</g>
<g>
</g>
<g>
</g>
<g>
</g>
<g>
</g>
<g>
</g>
<g>
</g>
<g>
</g>
<g>
</g>
<g>
</g>
<g>
</g>
<g>
</g>
<g>
</g>
</svg>
