<?xml version="1.0" encoding="iso-8859-1"?>
<!-- Generator: Adobe Illustrator 19.0.0, SVG Export Plug-In . SVG Version: 6.00 Build 0)  -->
<svg version="1.1" id="Capa_1" xmlns="http://www.w3.org/2000/svg" xmlns:xlink="http://www.w3.org/1999/xlink" x="0px" y="0px"
	 viewBox="0 0 511.996 511.996" style="enable-background:new 0 0 511.996 511.996;" xml:space="preserve">
<path style="fill:#F0DBC2;" d="M35.312,17.655h441.372c19.5,0,35.31,15.81,35.31,35.31v185.376c0,19.5-15.81,35.31-35.31,35.31
	H35.312c-19.5,0-35.31-15.81-35.31-35.31V52.965C0.003,33.465,15.813,17.655,35.312,17.655z"/>
<g>
	<polygon style="fill:#E6CCAF;" points="141.242,344.27 52.967,344.27 35.312,273.65 158.896,273.65 	"/>
	<polygon style="fill:#E6CCAF;" points="300.135,344.27 211.861,344.27 194.206,273.65 317.79,273.65 	"/>
	<polygon style="fill:#E6CCAF;" points="459.029,344.27 370.755,344.27 353.1,273.65 476.684,273.65 	"/>
</g>
<path style="fill:#EBD3B7;" d="M476.684,17.655h-45.355C336.557,135.307,179.455,224.305,80.571,273.65h396.113
	c19.5,0,35.31-15.81,35.31-35.31V52.965C511.994,33.465,496.184,17.655,476.684,17.655z"/>
<g>
	<path style="fill:#F09E3E;" d="M308.618,222.072c0.212-2.948,0.344-5.932,0.344-8.969c0-44.561-23.71-80.692-52.965-80.692
		s-52.965,36.131-52.965,80.692c0,3.037,0.132,6.02,0.344,8.969l0,0C235.112,243.761,276.893,243.761,308.618,222.072z"/>
	<path style="fill:#F09E3E;" d="M308.618,89.66c0.212-2.948,0.344-5.932,0.344-8.969C308.963,36.131,285.252,0,255.998,0
		s-52.965,36.131-52.965,80.692c0,3.037,0.132,6.02,0.344,8.969l0,0C235.112,111.349,276.893,111.349,308.618,89.66z"/>
	<path style="fill:#F09E3E;" d="M149.725,222.072c0.212-2.948,0.344-5.932,0.344-8.969c0-44.561-23.71-80.692-52.965-80.692
		S44.14,168.542,44.14,213.103c0,3.037,0.132,6.02,0.344,8.969l0,0C76.219,243.761,117.999,243.761,149.725,222.072z"/>
	<path style="fill:#F09E3E;" d="M149.725,89.66c0.212-2.948,0.344-5.932,0.344-8.969C150.069,36.131,126.358,0,97.104,0
		S44.14,36.131,44.14,80.692c0,3.037,0.132,6.02,0.344,8.969l0,0C76.219,111.349,117.999,111.349,149.725,89.66z"/>
	<path style="fill:#F09E3E;" d="M467.512,89.66c0.212-2.948,0.344-5.932,0.344-8.969C467.857,36.131,444.146,0,414.892,0
		s-52.965,36.131-52.965,80.692c0,3.037,0.132,6.02,0.344,8.969l0,0C394.006,111.349,435.787,111.349,467.512,89.66z"/>
</g>
<path style="fill:#F09235;" d="M132.414,20.603c-3.505,33.456-20.586,64.008-47.253,84.505c22.704,2.957,45.7-2.542,64.608-15.448
	c0.212-2.948,0.344-5.932,0.344-8.969C150.616,59.312,144.428,38.302,132.414,20.603z"/>
<ellipse style="fill:#D4B99B;" cx="414.892" cy="194.204" rx="61.792" ry="44.137"/>
<path style="fill:#F5EADF;" d="M414.892,459.027h35.31c14.627,0,26.482,11.855,26.482,26.482l0,0
	c0,14.627-11.855,26.482-26.482,26.482l0,0H211.861c-19.5,0-35.31-15.81-35.31-35.31h-70.619c-14.627,0-26.482-11.855-26.482-26.482
	l0,0c0-14.627,11.855-26.482,26.482-26.482h273.65C399.082,423.717,414.892,439.527,414.892,459.027z"/>
<ellipse style="fill:#FFCD6B;" cx="326.618" cy="467.854" rx="52.965" ry="44.137"/>
<path style="fill:#FFBE5C;" d="M360.912,434.248c0.653,3.072,0.989,6.197,1.015,9.331c0,30.472-29.643,55.171-66.206,55.171
	c-2.463,0-4.89-0.132-7.283-0.353c10.69,8.951,24.24,13.78,38.179,13.594c29.254,0,52.965-19.765,52.965-44.137
	C379.238,454.269,372.264,441.716,360.912,434.248z"/>
<path style="fill:#F09E3E;" d="M424.849,342.293c-24.62-23.375-69.984-17.84-102.645,10.469
	c-32.661-29.263-77.796-35.195-102.725-11.529c-25.485,24.222-21.177,68.995,11.635,100.138l9.11-26.579h36.448l-9.11-35.451h45.567
	l9.075-26.579l37.119,9.295l-9.075,35.442h36.448l-9.11,35.451l35.778,8.421C446.176,410.229,450.369,366.515,424.849,342.293z"/>
<g>
	<path style="fill:#F09235;" d="M424.849,342.293c-0.291-0.282-0.627-0.503-0.883-0.768c-1.933,27.895-16.913,53.247-40.421,68.386
		l-5.923,23.031l35.742,8.43C446.176,410.229,450.369,366.515,424.849,342.293z"/>
	<path style="fill:#F09235;" d="M291.264,20.647c-3.504,33.456-20.586,64.008-47.253,84.505c22.704,2.957,45.7-2.542,64.608-15.448
		c0.212-2.948,0.344-5.932,0.344-8.969C309.466,59.356,303.278,38.346,291.264,20.647z"/>
	<path style="fill:#F09235;" d="M450.202,20.647c-3.504,33.456-20.586,64.008-47.253,84.505c22.704,2.957,45.7-2.542,64.608-15.448
		c0.212-2.948,0.344-5.932,0.344-8.969C468.404,59.356,462.216,38.346,450.202,20.647z"/>
	<path style="fill:#F09235;" d="M132.414,153.059c-3.505,33.456-20.586,64.008-47.253,84.505c22.704,2.957,45.7-2.542,64.608-15.448
		c0.212-2.948,0.344-5.932,0.344-8.969C150.616,191.767,144.428,170.758,132.414,153.059z"/>
	<path style="fill:#F09235;" d="M291.264,153.059c-3.504,33.456-20.586,64.008-47.253,84.505c22.704,2.957,45.7-2.542,64.608-15.448
		c0.212-2.948,0.344-5.932,0.344-8.969C309.466,191.767,303.278,170.758,291.264,153.059z"/>
</g>
<g>
</g>
<g>
</g>
<g>
</g>
<g>
</g>
<g>
</g>
<g>
</g>
<g>
</g>
<g>
</g>
<g>
</g>
<g>
</g>
<g>
</g>
<g>
</g>
<g>
</g>
<g>
</g>
<g>
</g>
</svg>
