<?xml version="1.0" encoding="iso-8859-1"?>
<!-- Generator: Adobe Illustrator 19.0.0, SVG Export Plug-In . SVG Version: 6.00 Build 0)  -->
<svg version="1.1" id="Capa_1" xmlns="http://www.w3.org/2000/svg" xmlns:xlink="http://www.w3.org/1999/xlink" x="0px" y="0px"
	 viewBox="0 0 512.008 512.008" style="enable-background:new 0 0 512.008 512.008;" xml:space="preserve">
<path style="fill:#F0DBC2;" d="M315.151,25.683L315.151,25.683c15.962,17.076,38.526,26.426,61.889,25.636l0,0
	c44.679-1.518,82.127,33.478,83.645,78.165c0.063,1.823,0.063,3.656,0,5.479l0,0c-0.79,23.363,8.56,45.927,25.636,61.889l0,0
	c32.669,30.531,34.403,81.758,3.871,114.428c-1.249,1.329-2.542,2.623-3.871,3.871l0,0c-17.076,15.962-26.426,38.526-25.636,61.889
	l0,0c1.518,44.679-33.478,82.127-78.165,83.645c-1.823,0.063-3.656,0.063-5.479,0l0,0c-23.363-0.79-45.927,8.56-61.889,25.636l0,0
	c-30.531,32.669-81.758,34.403-114.428,3.871c-1.329-1.249-2.623-2.542-3.871-3.871l0,0c-15.962-17.076-38.526-26.426-61.889-25.636
	l0,0c-44.679,1.518-82.127-33.478-83.645-78.165c-0.063-1.823-0.063-3.656,0-5.479l0,0c0.79-23.363-8.56-45.927-25.636-61.889l0,0
	C-6.987,284.62-8.72,233.393,21.811,200.724c1.249-1.329,2.542-2.623,3.871-3.871l0,0c17.076-15.962,26.426-38.526,25.636-61.889
	l0,0C49.8,90.284,84.796,52.836,129.484,51.318c1.823-0.063,3.656-0.063,5.479,0l0,0c23.363,0.79,45.927-8.56,61.889-25.636l0,0
	C227.384-6.987,278.611-8.72,311.28,21.811C312.618,23.06,313.903,24.353,315.151,25.683z"/>
<g>
	<path style="fill:#D68033;" d="M483.105,116.774c-9.962,0-19.222,5.129-24.504,13.581l-36.424,58.278l17.965,17.965l58.278-36.424
		c13.537-8.461,17.651-26.283,9.189-39.819C502.328,121.903,493.067,116.774,483.105,116.774z"/>
	<path style="fill:#D68033;" d="M130.355,458.601c-13.537,8.461-17.651,26.283-9.189,39.819s26.283,17.651,39.819,9.189
		c3.719-2.326,6.863-5.47,9.189-9.189l36.424-58.278l-17.965-17.965L130.355,458.601z"/>
</g>
<rect x="149.247" y="263.574" transform="matrix(-0.7071 0.7071 -0.7071 -0.7071 758.9989 314.3877)" style="fill:#F09E3E;" width="330.282" height="101.627"/>
<rect x="169.457" y="312.367" transform="matrix(-0.7071 0.7071 -0.7071 -0.7071 807.7907 334.5985)" style="fill:#F09235;" width="330.282" height="44.463"/>
<g>
	
		<rect x="199.86" y="148.502" transform="matrix(-0.7071 0.7071 -0.7071 -0.7071 504.1881 208.8397)" style="fill:#E6CCAF;" width="17.965" height="120.678"/>
	
		<rect x="255.998" y="130.698" transform="matrix(-0.7071 0.7071 -0.7071 -0.7071 576.2036 111.6415)" style="fill:#E6CCAF;" width="17.965" height="88.916"/>
	
		<rect x="166.155" y="220.523" transform="matrix(-0.7071 0.7071 -0.7071 -0.7071 486.3483 328.5099)" style="fill:#E6CCAF;" width="17.965" height="88.916"/>
	
		<rect x="134.722" y="297.963" transform="matrix(-0.7071 0.7071 -0.7071 -0.7071 473.9753 450.4121)" style="fill:#E6CCAF;" width="17.965" height="50.813"/>
	
		<rect x="314.393" y="118.3" transform="matrix(-0.7071 0.7071 -0.7071 -0.7071 653.6514 16.6611)" style="fill:#E6CCAF;" width="17.965" height="50.813"/>
</g>
<g>
</g>
<g>
</g>
<g>
</g>
<g>
</g>
<g>
</g>
<g>
</g>
<g>
</g>
<g>
</g>
<g>
</g>
<g>
</g>
<g>
</g>
<g>
</g>
<g>
</g>
<g>
</g>
<g>
</g>
</svg>
