<?xml version="1.0" encoding="iso-8859-1"?>
<!-- Generator: Adobe Illustrator 19.0.0, SVG Export Plug-In . SVG Version: 6.00 Build 0)  -->
<svg version="1.1" id="Capa_1" xmlns="http://www.w3.org/2000/svg" xmlns:xlink="http://www.w3.org/1999/xlink" x="0px" y="0px"
	 viewBox="0 0 512 512" style="enable-background:new 0 0 512 512;" xml:space="preserve">
<polygon style="fill:#B8DBE0;" points="79.467,317.793 141.26,512 370.778,512 432.571,317.793 "/>
<path style="fill:#AFD6DB;" d="M141.26,512h229.517l61.793-194.207h-20.303c-90.748,80.331-211.377,118.819-289.395,136.413
	L141.26,512z"/>
<g>
	<rect x="247.174" y="317.793" style="fill:#A9CED4;" width="17.655" height="194.207"/>
	<polygon style="fill:#A9CED4;" points="176.182,317.793 158.359,317.793 185.054,512 202.877,512 	"/>
	<polygon style="fill:#A9CED4;" points="354.235,317.793 336.279,317.793 300.06,512 318.006,512 	"/>
</g>
<path style="fill:#F29C9B;" d="M434.469,226.136l-42.293-3.381c22.06-13.091,29.325-41.596,16.234-63.656
	c-7.459-12.57-20.401-20.886-34.931-22.466l-43.255-4.802c16.614-13.833,18.873-38.524,5.032-55.137
	c-5.508-6.621-13.056-11.238-21.451-13.135l-29.193-6.709c-19.129-4.414-31.064-23.499-26.651-42.628
	C259.162,9.022,261.51,4.167,264.847,0h-26.483c-39,0-70.621,31.62-70.621,70.621c0,16.402,5.711,32.3,16.154,44.95l-21.954-2.436
	c-32.018-3.584-60.875,19.474-64.459,51.482c-1.359,12.173,1.139,24.461,7.159,35.134l-5.297-0.415
	c-32.662-2.586-61.237,21.786-63.823,54.449c-2.586,32.662,21.786,61.237,54.449,63.823c1.563,0.124,3.116,0.185,4.679,0.185
	h336.155c25.353-0.026,45.886-20.595,45.859-45.948C476.638,247.949,458.286,228.07,434.469,226.136z"/>
<g>
	<path style="fill:#F28685;" d="M211.881,123.586L211.881,123.586c0.344-4.864,4.573-8.527,9.437-8.174l105.975,7.574
		c4.864,0.344,8.527,4.573,8.174,9.437l0,0c-0.344,4.864-4.573,8.527-9.437,8.174l-105.975-7.574
		C215.191,132.679,211.537,128.45,211.881,123.586z"/>
	<path style="fill:#F28685;" d="M132.433,203.034L132.433,203.034c0.371-4.864,4.608-8.501,9.472-8.13l252.39,19.209
		c4.864,0.371,8.501,4.608,8.13,9.472l0,0c-0.371,4.864-4.608,8.501-9.472,8.13l-252.39-19.209
		C135.708,212.136,132.062,207.89,132.433,203.034z"/>
</g>
<g>
	<rect x="194.208" y="52.966" style="fill:#F0614A;" width="17.655" height="17.655"/>
	<rect x="247.174" y="79.448" style="fill:#F0614A;" width="17.655" height="17.655"/>
	<rect x="273.657" y="150.069" style="fill:#F0614A;" width="17.655" height="17.655"/>
	<rect x="141.243" y="158.897" style="fill:#F0614A;" width="17.655" height="17.655"/>
	<rect x="353.105" y="176.552" style="fill:#F0614A;" width="17.655" height="17.655"/>
	<rect x="79.45" y="238.345" style="fill:#F0614A;" width="17.655" height="17.655"/>
	<rect x="203.036" y="238.345" style="fill:#F0614A;" width="17.655" height="17.655"/>
	<rect x="123.588" y="273.655" style="fill:#F0614A;" width="17.655" height="17.655"/>
	<rect x="291.312" y="264.828" style="fill:#F0614A;" width="17.655" height="17.655"/>
	<rect x="406.07" y="247.172" style="fill:#F0614A;" width="17.655" height="17.655"/>
</g>
<g>
</g>
<g>
</g>
<g>
</g>
<g>
</g>
<g>
</g>
<g>
</g>
<g>
</g>
<g>
</g>
<g>
</g>
<g>
</g>
<g>
</g>
<g>
</g>
<g>
</g>
<g>
</g>
<g>
</g>
</svg>
