<?xml version="1.0" encoding="iso-8859-1"?>
<!-- Generator: Adobe Illustrator 19.0.0, SVG Export Plug-In . SVG Version: 6.00 Build 0)  -->
<svg version="1.1" id="Capa_1" xmlns="http://www.w3.org/2000/svg" xmlns:xlink="http://www.w3.org/1999/xlink" x="0px" y="0px"
	 viewBox="0 0 512 512" style="enable-background:new 0 0 512 512;" xml:space="preserve">
<path style="fill:#D4B99B;" d="M512,335.448C512,150.184,361.816,0,176.552,0L0,512L512,335.448z"/>
<path style="fill:#F0614A;" d="M419.522,113.796l-58.951,17.655c-7.768,2.322-16.19,0.203-21.928-5.535l0,0
	c-5.208-5.217-7.468-12.676-6.029-19.906l11.538-57.679c2.339-11.608,11.149-20.833,22.634-23.702l1.112-0.282
	c9.631-2.401,19.827,0.018,27.366,6.471l35.381,30.323c8.819,7.556,12.606,19.456,9.79,30.72l0,0
	C437.822,102.347,429.877,110.68,419.522,113.796z"/>
<circle style="fill:#FFCD6B;" cx="238.345" cy="97.103" r="61.793"/>
<polygon style="fill:#FFB75E;" points="271.069,108.518 247.172,84.621 247.172,61.793 229.517,61.793 229.517,84.621 
	205.621,108.518 218.103,121 238.345,100.758 258.586,121 "/>
<circle style="fill:#FFCD6B;" cx="291.31" cy="247.172" r="61.793"/>
<polygon style="fill:#FFB75E;" points="324.034,258.586 300.138,234.69 300.138,211.862 282.483,211.862 282.483,234.69 
	258.586,258.586 271.069,271.069 291.31,250.827 311.552,271.069 "/>
<circle style="fill:#2F6591;" cx="397.241" cy="185.379" r="26.483"/>
<circle style="fill:#F0614A;" cx="476.69" cy="238.345" r="26.483"/>
<g>
	<rect x="361.931" y="44.138" style="fill:#D6533E;" width="17.655" height="17.655"/>
	<rect x="361.931" y="79.448" style="fill:#D6533E;" width="17.655" height="17.655"/>
	<rect x="397.241" y="79.448" style="fill:#D6533E;" width="17.655" height="17.655"/>
</g>
<path style="fill:#E6CCAF;" d="M512,335.448L0,512l21.901-63.559c53.433-154.854,222.287-237.065,377.141-183.623
	C441.565,279.49,480.185,303.642,512,335.448z"/>
<path style="fill:#F0DBC2;" d="M63.559,490.099L0,512L176.552,0l0,0c115.827,115.844,115.809,303.642-0.035,419.469
	C144.711,451.275,106.081,475.427,63.559,490.099z"/>
<g>
</g>
<g>
</g>
<g>
</g>
<g>
</g>
<g>
</g>
<g>
</g>
<g>
</g>
<g>
</g>
<g>
</g>
<g>
</g>
<g>
</g>
<g>
</g>
<g>
</g>
<g>
</g>
<g>
</g>
</svg>
