<?xml version="1.0" encoding="iso-8859-1"?>
<!-- Generator: Adobe Illustrator 19.0.0, SVG Export Plug-In . SVG Version: 6.00 Build 0)  -->
<svg version="1.1" id="Capa_1" xmlns="http://www.w3.org/2000/svg" xmlns:xlink="http://www.w3.org/1999/xlink" x="0px" y="0px"
	 viewBox="0 0 512.001 512.001" style="enable-background:new 0 0 512.001 512.001;" xml:space="preserve">
<path style="fill:#F0DBC2;" d="M414.918,88.219c-18.852-0.018-37.289,5.49-53.043,15.833
	C360.807,45.608,312.566-0.904,254.122,0.164c-56.935,1.033-102.847,46.944-103.888,103.888
	c-44.87-29.354-105.044-16.769-134.39,28.11s-16.76,105.044,28.11,134.39c15.825,10.353,34.323,15.851,53.237,15.833v229.47h317.727
	v-229.47c53.617,0,97.083-43.467,97.083-97.083S468.535,88.219,414.918,88.219z"/>
<path style="fill:#E6CCAF;" d="M414.918,88.219c-1.995,0-3.963,0.097-5.922,0.221C349.607,288.431,187.055,360.988,97.191,388.295
	v123.561h317.727v-229.47c53.617,0,97.083-43.467,97.083-97.083S468.535,88.219,414.918,88.219z"/>
<g>
	<polygon style="fill:#D4B99B;" points="338.213,379.469 361.655,293.532 344.621,288.89 319.918,379.469 264.88,379.469 
		264.88,282.386 247.229,282.386 247.229,379.469 192.191,379.469 167.488,288.89 150.454,293.532 173.895,379.469 97.191,379.469 
		97.191,397.12 414.918,397.12 414.918,379.469 	"/>
	<rect x="123.65" y="414.772" style="fill:#D4B99B;" width="291.25" height="17.652"/>
</g>
<g>
</g>
<g>
</g>
<g>
</g>
<g>
</g>
<g>
</g>
<g>
</g>
<g>
</g>
<g>
</g>
<g>
</g>
<g>
</g>
<g>
</g>
<g>
</g>
<g>
</g>
<g>
</g>
<g>
</g>
</svg>
