<?xml version="1.0" encoding="iso-8859-1"?>
<!-- Generator: Adobe Illustrator 19.0.0, SVG Export Plug-In . SVG Version: 6.00 Build 0)  -->
<svg version="1.1" id="Capa_1" xmlns="http://www.w3.org/2000/svg" xmlns:xlink="http://www.w3.org/1999/xlink" x="0px" y="0px"
	 viewBox="0 0 512.004 512.004" style="enable-background:new 0 0 512.004 512.004;" xml:space="preserve">
<circle style="fill:#BF7341;" cx="344.094" cy="167.794" r="167.794"/>
<path style="fill:#B56D3E;" d="M270.618,318.543c83.164,40.668,183.557,6.226,224.225-76.938
	c22.723-46.461,22.723-100.817,0-147.287L270.618,318.543z"/>
<g>
	<circle style="fill:#965735;" cx="335.263" cy="61.819" r="26.494"/>
	<circle style="fill:#965735;" cx="432.406" cy="211.95" r="17.662"/>
	<rect x="405.912" y="114.806" style="fill:#965735;" width="17.662" height="17.662"/>
	<rect x="344.094" y="220.781" style="fill:#965735;" width="17.662" height="17.662"/>
	<circle style="fill:#965735;" cx="264.613" cy="141.3" r="17.662"/>
</g>
<path style="fill:#F09E3E;" d="M167.469,176.625c-9.096,0.062-18.175,0.857-27.138,2.393c4.142,23.447-11.498,45.808-34.945,49.949
	c-2.826,0.503-5.696,0.715-8.566,0.645h-0.221c14.792,19.208,11.216,46.761-7.983,61.554c-13.591,10.474-32.04,12.063-47.229,4.071
	c1.563,4.46,2.384,9.132,2.446,13.856c0,24.215-19.499,43.918-43.715,44.156c4.937,92.481,83.906,163.449,176.386,158.512
	c92.481-4.937,163.449-83.906,158.512-176.386C330.264,246.33,256.647,176.572,167.469,176.625z"/>
<g>
	<circle style="fill:#D68033;" cx="220.456" cy="264.937" r="26.494"/>
	<circle style="fill:#D68033;" cx="114.481" cy="441.562" r="17.662"/>
	<rect x="220.456" y="370.912" style="fill:#D68033;" width="17.662" height="17.662"/>
	<rect x="96.819" y="335.587" style="fill:#D68033;" width="17.662" height="17.662"/>
</g>
<g>
</g>
<g>
</g>
<g>
</g>
<g>
</g>
<g>
</g>
<g>
</g>
<g>
</g>
<g>
</g>
<g>
</g>
<g>
</g>
<g>
</g>
<g>
</g>
<g>
</g>
<g>
</g>
<g>
</g>
</svg>
