<?xml version="1.0" encoding="iso-8859-1"?>
<!-- Generator: Adobe Illustrator 19.0.0, SVG Export Plug-In . SVG Version: 6.00 Build 0)  -->
<svg version="1.1" id="Capa_1" xmlns="http://www.w3.org/2000/svg" xmlns:xlink="http://www.w3.org/1999/xlink" x="0px" y="0px"
	 viewBox="0 0 511.995 511.995" style="enable-background:new 0 0 511.995 511.995;" xml:space="preserve">
<path style="fill:#F09E3E;" d="M101.175,100.167L101.175,100.167c17.498-2.613,33.963,9.009,37.365,26.368l0,0
	c15.718,7.846,22.107,26.941,14.269,42.668l0,0c7.838,15.727,1.449,34.822-14.269,42.668l0,0
	c-3.402,17.359-19.867,28.981-37.365,26.368l0,0c-13.019,12.108-33.173,12.108-46.192,0l0,0
	c-17.498,2.613-33.963-9.009-37.365-26.368l0,0C1.899,204.025-4.489,184.93,3.349,169.203l0,0
	c-7.838-15.727-1.449-34.822,14.269-42.668l0,0c3.402-17.359,19.867-28.981,37.365-26.368l0,0
	C68.002,88.059,88.156,88.059,101.175,100.167z"/>
<path style="fill:#F09235;" d="M138.123,126.31c-3.246-16.369-18.209-27.739-34.848-26.472c0,0.148,0.095,0.286,0.13,0.434
	c15.718,7.846,22.107,26.941,14.269,42.668c7.846,15.718,1.458,34.822-14.26,42.668c0,0,0,0-0.009,0
	c-3.411,17.359-19.867,28.981-37.374,26.377c-13.019,12.099-33.164,12.099-46.183,0c-0.868,0.113-1.684,0.043-2.526,0.104
	c3.602,17.133,19.928,28.495,37.243,25.934c13.019,12.099,33.164,12.099,46.183,0c17.506,2.604,33.963-9.018,37.374-26.377
	c15.718-7.838,22.115-26.941,14.269-42.659c0,0,0,0,0-0.009C160.23,153.251,153.842,134.156,138.123,126.31z"/>
<g>
	<rect x="43.361" y="134.486" style="fill:#C96E23;" width="17.359" height="17.359"/>
	<rect x="95.438" y="134.486" style="fill:#C96E23;" width="17.359" height="17.359"/>
	<rect x="43.361" y="186.562" style="fill:#C96E23;" width="17.359" height="17.359"/>
	<rect x="95.438" y="186.562" style="fill:#C96E23;" width="17.359" height="17.359"/>
</g>
<path style="fill:#BF7341;" d="M101.175,186.961L101.175,186.961c17.498-2.613,33.963,9.009,37.365,26.368l0,0
	c15.718,7.846,22.107,26.941,14.269,42.668l0,0c7.838,15.727,1.449,34.822-14.269,42.668l0,0
	c-3.402,17.359-19.867,28.981-37.365,26.368l0,0c-13.019,12.108-33.173,12.108-46.192,0l0,0
	c-17.498,2.612-33.963-9.009-37.365-26.368l0,0C1.899,290.82-4.489,271.725,3.349,255.998l0,0
	c-7.838-15.727-1.449-34.822,14.269-42.668l0,0c3.402-17.359,19.867-28.981,37.365-26.368l0,0
	C68.002,174.854,88.156,174.854,101.175,186.961z"/>
<path style="fill:#B56D3E;" d="M138.123,213.104c-3.246-16.369-18.209-27.739-34.848-26.472c0,0.148,0.095,0.286,0.13,0.434
	c15.718,7.846,22.107,26.941,14.269,42.668c7.846,15.718,1.458,34.822-14.26,42.668c0,0,0,0-0.009,0
	c-3.411,17.359-19.867,28.981-37.374,26.377c-13.019,12.099-33.164,12.099-46.183,0c-0.868,0.113-1.684,0-2.526,0.104
	c3.602,17.133,19.928,28.495,37.243,25.934c13.019,12.099,33.164,12.099,46.183,0c17.506,2.604,33.963-9.018,37.374-26.377
	c15.718-7.838,22.115-26.941,14.269-42.659c0,0,0,0,0-0.009C160.23,240.045,153.842,220.95,138.123,213.104z"/>
<g>
	<rect x="43.361" y="221.28" style="fill:#965735;" width="17.359" height="17.359"/>
	<rect x="95.438" y="221.28" style="fill:#965735;" width="17.359" height="17.359"/>
	<rect x="43.361" y="273.357" style="fill:#965735;" width="17.359" height="17.359"/>
	<rect x="95.438" y="273.357" style="fill:#965735;" width="17.359" height="17.359"/>
</g>
<path style="fill:#F09E3E;" d="M101.175,273.756L101.175,273.756c17.498-2.613,33.963,9.009,37.365,26.368l0,0
	c15.718,7.846,22.107,26.941,14.269,42.668l0,0c7.838,15.727,1.449,34.822-14.269,42.668l0,0
	c-3.402,17.359-19.867,28.981-37.365,26.368l0,0c-13.019,12.108-33.173,12.108-46.192,0l0,0
	c-17.498,2.612-33.963-9.009-37.365-26.368l0,0c-15.718-7.846-22.107-26.941-14.269-42.668l0,0
	c-7.838-15.727-1.449-34.822,14.269-42.668l0,0c3.402-17.359,19.867-28.981,37.365-26.368l0,0
	C68.002,261.648,88.156,261.648,101.175,273.756z"/>
<g>
	<path style="fill:#F2B9B8;" d="M407.897,221.28v-17.359h17.437c8.94-0.79,17.723-2.76,26.142-5.867
		c12.594-4.852,24.363-11.604,34.9-20.041c8.133-6.544,10.615-17.862,5.98-27.21c-5.451-10.945-18.739-15.397-29.692-9.947
		c-0.529,0.26-1.05,0.547-1.554,0.851l-39.804,26.09l-9.547-14.529l40.09-26.264c18.609-11.396,42.928-5.555,54.325,13.054
		c10.407,16.986,6.536,39.066-9.027,51.504c-11.926,9.547-25.248,17.203-39.509,22.688c-10.146,3.741-20.753,6.076-31.532,6.944
		L407.897,221.28z"/>
	<path style="fill:#F2B9B8;" d="M216.95,108.447v34.718c-0.625,53.674,32.131,102.105,82.177,121.512h58.152
		c50.775-19.043,84.651-67.292,85.336-121.512v-34.718C442.615,108.447,216.95,108.447,216.95,108.447z"/>
</g>
<path style="fill:#F29C9B;" d="M199.591,264.677h260.383l0,0l0,0c0,19.173-15.545,34.718-34.718,34.718H234.309
	C215.136,299.395,199.591,283.85,199.591,264.677L199.591,264.677L199.591,264.677z"/>
<path style="fill:#F2B9B8;" d="M435.672,344.163l-138.871,7.308c-11.96-11.839-28.321-18.131-45.133-17.359
	c-28.764,0-52.077,15.545-52.077,34.718c0,19.173,23.313,34.718,52.077,34.718c16.786,0.746,33.112-5.546,45.055-17.359
	l138.871,7.308c13.618,0.738,25.266-9.704,26.004-23.33c0.026-0.443,0.035-0.894,0.035-1.337l0,0
	c0-13.644-11.066-24.702-24.702-24.702C436.505,344.129,436.088,344.137,435.672,344.163z"/>
<g>
	<path style="fill:#FAD5D4;" d="M271.57,218.737c-13.757-12.785-23.591-29.215-28.356-47.381l16.908-3.949
		c4.053,14.998,12.281,28.547,23.721,39.057L271.57,218.737z"/>
	<path style="fill:#FAD5D4;" d="M258.611,151.844l-17.359-0.182c0.095-6.371,0.79-12.724,2.066-18.973l17.029,3.411
		C259.271,141.282,258.689,146.55,258.611,151.844z"/>
</g>
<path style="fill:#F09235;" d="M138.54,300.124c-3.22-16.378-18.192-27.757-34.839-26.472c0,0.148,0.095,0.278,0.122,0.434
	c15.718,7.846,22.107,26.941,14.269,42.668c7.838,15.727,1.449,34.822-14.269,42.668c-3.402,17.342-19.833,28.955-37.322,26.368
	c-13.019,12.108-33.173,12.108-46.192,0c-0.868,0.122-1.675,0.052-2.526,0.104c3.602,17.133,19.919,28.503,37.243,25.934
	c13.019,12.108,33.173,12.108,46.192,0c17.498,2.613,33.963-9.009,37.365-26.368c15.701-7.864,22.072-26.958,14.226-42.668
	C160.646,327.065,154.258,307.97,138.54,300.124z"/>
<g>
	<rect x="43.361" y="308.074" style="fill:#C96E23;" width="17.359" height="17.359"/>
	<rect x="95.438" y="308.074" style="fill:#C96E23;" width="17.359" height="17.359"/>
	<rect x="43.361" y="360.151" style="fill:#C96E23;" width="17.359" height="17.359"/>
	<rect x="95.438" y="360.151" style="fill:#C96E23;" width="17.359" height="17.359"/>
</g>
<path style="fill:#F2AEAC;" d="M390.539,108.447c-5.607,100.977-72.829,129.41-122.042,139.253
	c9.374,7.056,19.685,12.767,30.63,16.977h58.152c50.775-19.043,84.651-67.292,85.336-121.512v-34.718
	C442.615,108.447,390.539,108.447,390.539,108.447z"/>
<g>
</g>
<g>
</g>
<g>
</g>
<g>
</g>
<g>
</g>
<g>
</g>
<g>
</g>
<g>
</g>
<g>
</g>
<g>
</g>
<g>
</g>
<g>
</g>
<g>
</g>
<g>
</g>
<g>
</g>
</svg>
