<?xml version="1.0" encoding="iso-8859-1"?>
<!-- Generator: Adobe Illustrator 19.0.0, SVG Export Plug-In . SVG Version: 6.00 Build 0)  -->
<svg version="1.1" id="Capa_1" xmlns="http://www.w3.org/2000/svg" xmlns:xlink="http://www.w3.org/1999/xlink" x="0px" y="0px"
	 viewBox="0 0 512 512" style="enable-background:new 0 0 512 512;" xml:space="preserve">
<rect x="105.931" style="fill:#BF7341;" width="300.138" height="512"/>
<path style="fill:#B56D3E;" d="M105.931,318.852V512h300.138V0h-19.482C320.247,146.644,190.27,258.048,105.931,318.852z"/>
<g>
	<path style="fill:#965735;" d="M282.483,97.103h-52.966c-4.873,0-8.828-3.955-8.828-8.828V35.31c0-4.873,3.955-8.828,8.828-8.828
		h52.966c4.873,0,8.828,3.955,8.828,8.828v52.966C291.31,93.149,287.356,97.103,282.483,97.103z M238.345,79.448h35.31v-35.31
		h-35.31V79.448z"/>
	<path style="fill:#965735;" d="M194.207,97.103h-52.966c-4.873,0-8.828-3.955-8.828-8.828V35.31c0-4.873,3.955-8.828,8.828-8.828
		h52.966c4.873,0,8.828,3.955,8.828,8.828v52.966C203.034,93.149,199.08,97.103,194.207,97.103z M150.069,79.448h35.31v-35.31
		h-35.31V79.448z"/>
	<path style="fill:#965735;" d="M370.759,97.103h-52.966c-4.873,0-8.828-3.955-8.828-8.828V35.31c0-4.873,3.955-8.828,8.828-8.828
		h52.966c4.873,0,8.828,3.955,8.828,8.828v52.966C379.586,93.149,375.631,97.103,370.759,97.103z M326.621,79.448h35.31v-35.31
		h-35.31V79.448z"/>
	<path style="fill:#965735;" d="M282.483,185.379h-52.966c-4.873,0-8.828-3.955-8.828-8.828v-52.966
		c0-4.873,3.955-8.828,8.828-8.828h52.966c4.873,0,8.828,3.955,8.828,8.828v52.966C291.31,181.425,287.356,185.379,282.483,185.379z
		 M238.345,167.724h35.31v-35.31h-35.31V167.724z"/>
	<path style="fill:#965735;" d="M194.207,185.379h-52.966c-4.873,0-8.828-3.955-8.828-8.828v-52.966
		c0-4.873,3.955-8.828,8.828-8.828h52.966c4.873,0,8.828,3.955,8.828,8.828v52.966C203.034,181.425,199.08,185.379,194.207,185.379z
		 M150.069,167.724h35.31v-35.31h-35.31V167.724z"/>
	<path style="fill:#965735;" d="M370.759,185.379h-52.966c-4.873,0-8.828-3.955-8.828-8.828v-52.966
		c0-4.873,3.955-8.828,8.828-8.828h52.966c4.873,0,8.828,3.955,8.828,8.828v52.966C379.586,181.425,375.631,185.379,370.759,185.379
		z M326.621,167.724h35.31v-35.31h-35.31V167.724z"/>
	<path style="fill:#965735;" d="M282.483,273.655h-52.966c-4.873,0-8.828-3.955-8.828-8.828v-52.966
		c0-4.873,3.955-8.828,8.828-8.828h52.966c4.873,0,8.828,3.955,8.828,8.828v52.966C291.31,269.7,287.356,273.655,282.483,273.655z
		 M238.345,256h35.31v-35.31h-35.31V256z"/>
	<path style="fill:#965735;" d="M194.207,273.655h-52.966c-4.873,0-8.828-3.955-8.828-8.828v-52.966
		c0-4.873,3.955-8.828,8.828-8.828h52.966c4.873,0,8.828,3.955,8.828,8.828v52.966C203.034,269.7,199.08,273.655,194.207,273.655z
		 M150.069,256h35.31v-35.31h-35.31V256z"/>
	<path style="fill:#965735;" d="M194.207,361.931h-52.966c-4.873,0-8.828-3.955-8.828-8.828v-52.966
		c0-4.873,3.955-8.828,8.828-8.828h52.966c4.873,0,8.828,3.955,8.828,8.828v52.966C203.034,357.976,199.08,361.931,194.207,361.931z
		 M150.069,344.276h35.31v-35.31h-35.31V344.276z"/>
	<path style="fill:#965735;" d="M370.759,273.655h-52.966c-4.873,0-8.828-3.955-8.828-8.828v-52.966
		c0-4.873,3.955-8.828,8.828-8.828h52.966c4.873,0,8.828,3.955,8.828,8.828v52.966C379.586,269.7,375.631,273.655,370.759,273.655z
		 M326.621,256h35.31v-35.31h-35.31V256z"/>
</g>
<polygon style="fill:#F2B9B8;" points="406.069,512 105.931,512 105.931,353.103 406.069,211.862 "/>
<polygon style="fill:#F2AEAC;" points="406.069,330.408 406.069,211.862 105.931,353.103 105.931,358.991 326.621,432.552 "/>
<path style="fill:#F28685;" d="M361.931,441.379H150.069c-4.873,0-8.828-3.955-8.828-8.828v-88.276h17.655v79.448h194.207V264.828
	h17.655v167.724C370.759,437.425,366.804,441.379,361.931,441.379z"/>
<g>
	<polygon style="fill:#F0DBC2;" points="105.931,353.103 317.793,388.414 406.069,211.862 	"/>
	<rect x="105.931" y="476.69" style="fill:#F0DBC2;" width="300.138" height="35.31"/>
</g>
<g>
</g>
<g>
</g>
<g>
</g>
<g>
</g>
<g>
</g>
<g>
</g>
<g>
</g>
<g>
</g>
<g>
</g>
<g>
</g>
<g>
</g>
<g>
</g>
<g>
</g>
<g>
</g>
<g>
</g>
</svg>
