<?xml version="1.0" encoding="iso-8859-1"?>
<!-- Generator: Adobe Illustrator 19.0.0, SVG Export Plug-In . SVG Version: 6.00 Build 0)  -->
<svg version="1.1" id="Capa_1" xmlns="http://www.w3.org/2000/svg" xmlns:xlink="http://www.w3.org/1999/xlink" x="0px" y="0px"
	 viewBox="0 0 512 512" style="enable-background:new 0 0 512 512;" xml:space="preserve">
<path style="fill:#965735;" d="M0,379.58v44.136c0,9.754,7.9,17.654,17.654,17.654h370.739c9.754,0,17.654-7.9,17.654-17.654V379.58
	H0z"/>
<path style="fill:#BF7341;" d="M486.984,231.028c-6.347-1.915-13.108-2.013-19.508-0.265c-14.803,4.581-30.153,7.132-45.645,7.583
	h-15.783v-97.098c0-9.754-7.9-17.654-17.654-17.654H17.654C7.9,123.593,0,131.493,0,141.247v247.16
	c0,9.754,7.9,17.654,17.654,17.654h370.739c9.754,0,17.654-7.9,17.654-17.654v-97.098h15.836
	c14.777-0.141,29.474,2.198,43.474,6.921c3.637,1.262,7.459,1.907,11.308,1.907c19.526-0.018,35.353-15.854,35.335-35.388
	c0-2.754-0.327-5.499-0.962-8.174C508.178,244.357,499.007,234.612,486.984,231.028z"/>
<rect x="467.838" y="255.982" style="fill:#965735;" width="17.654" height="17.654"/>
<path style="fill:#FFCD6B;" d="M52.963,194.21L229.505,70.63l0,0c68.251,0,123.58,55.328,123.58,123.58H52.963z"/>
<path style="fill:#FFBE5C;" d="M52.963,194.21v52.963c9.754,0,17.654,7.9,17.654,17.654c0,9.754-7.9,17.654-17.654,17.654v52.963
	h300.122V194.21L52.963,194.21L52.963,194.21z"/>
<path style="fill:#FCB344;" d="M353.085,194.21h-84.37c-35.158,57.615-83.54,106.031-141.128,141.234h225.498V194.21z"/>
<g>
	<circle style="fill:#F0913E;" cx="282.468" cy="255.982" r="26.481"/>
	<circle style="fill:#F0913E;" cx="150.061" cy="282.464" r="17.654"/>
	<rect x="220.678" y="291.291" style="fill:#F0913E;" width="17.654" height="17.654"/>
	<rect x="88.271" y="220.674" style="fill:#F0913E;" width="17.654" height="17.654"/>
</g>
<g>
</g>
<g>
</g>
<g>
</g>
<g>
</g>
<g>
</g>
<g>
</g>
<g>
</g>
<g>
</g>
<g>
</g>
<g>
</g>
<g>
</g>
<g>
</g>
<g>
</g>
<g>
</g>
<g>
</g>
</svg>
