<?xml version="1.0" encoding="iso-8859-1"?>
<!-- Generator: Adobe Illustrator 19.0.0, SVG Export Plug-In . SVG Version: 6.00 Build 0)  -->
<svg version="1.1" id="Capa_1" xmlns="http://www.w3.org/2000/svg" xmlns:xlink="http://www.w3.org/1999/xlink" x="0px" y="0px"
	 viewBox="0 0 512 512" style="enable-background:new 0 0 512 512;" xml:space="preserve">
<rect x="35.965" y="69.424" style="fill:#F0614A;" width="260.339" height="364.475"/>
<rect x="296.33" y="69.424" style="fill:#BF7341;" width="86.78" height="364.475"/>
<polygon style="fill:#D6533E;" points="296.304,69.424 35.965,69.424 1.253,0 261.592,0 "/>
<polygon style="fill:#965735;" points="296.304,69.424 383.083,69.424 417.795,0 261.592,0 "/>
<g>
	<rect x="61.999" y="95.458" style="fill:#D6533E;" width="43.39" height="17.356"/>
	<rect x="61.999" y="130.169" style="fill:#D6533E;" width="43.39" height="17.356"/>
	<rect x="61.999" y="390.508" style="fill:#D6533E;" width="17.356" height="17.356"/>
	<rect x="96.711" y="390.508" style="fill:#D6533E;" width="34.712" height="17.356"/>
</g>
<path style="fill:#FFCD6B;" d="M175.758,340.697L175.758,340.697c-5.832,3.888-13.416,3.888-19.248,0l0,0
	c-26.52-17.677-42.444-47.434-42.444-79.299v-61.883c0-25.869,16.549-48.831,41.09-57.006l0,0c7.125-2.378,14.831-2.378,21.955,0
	l0,0c24.541,8.175,41.09,31.137,41.09,57.006v61.883C218.202,293.263,202.269,323.02,175.758,340.697z"/>
<g>
	<rect x="157.482" y="164.881" style="fill:#F09E3E;" width="17.356" height="17.356"/>
	<rect x="157.482" y="199.593" style="fill:#F09E3E;" width="17.356" height="17.356"/>
	<rect x="157.482" y="234.305" style="fill:#F09E3E;" width="17.356" height="17.356"/>
	<rect x="122.771" y="164.881" style="fill:#F09E3E;" width="17.356" height="17.356"/>
	<rect x="122.771" y="199.593" style="fill:#F09E3E;" width="17.356" height="17.356"/>
	<rect x="122.771" y="234.305" style="fill:#F09E3E;" width="17.356" height="17.356"/>
	<rect x="192.194" y="164.881" style="fill:#F09E3E;" width="17.356" height="17.356"/>
	<rect x="192.194" y="199.593" style="fill:#F09E3E;" width="17.356" height="17.356"/>
	<rect x="192.194" y="234.305" style="fill:#F09E3E;" width="17.356" height="17.356"/>
</g>
<path style="fill:#D68033;" d="M244.236,251.661L244.236,251.661c-52.719,0-95.458,42.739-95.458,95.458h34.712
	c25.123,0,46.653-17.972,51.148-42.687L244.236,251.661z"/>
<path style="fill:#F09E3E;" d="M88.033,251.661L88.033,251.661c52.719,0,95.458,42.739,95.458,95.458h-34.712
	c-25.123,0-46.653-17.972-51.148-42.687L88.033,251.661z"/>
<path style="fill:#F0DBC2;" d="M292.919,503.322h145.616c33.445-21.73,55.817-56.919,61.292-96.43l4.747-33.74H226.88l4.747,33.74
	C237.103,446.403,259.466,481.592,292.919,503.322z"/>
<g>
	<rect x="140.126" y="494.644" style="fill:#FFCD6B;" width="26.034" height="17.356"/>
	
		<rect x="88.074" y="473.722" transform="matrix(-0.7071 0.7071 -0.7071 -0.7071 508.8147 761.2279)" style="fill:#FFCD6B;" width="17.356" height="24.541"/>
	<rect x="166.16" y="459.932" style="fill:#FFCD6B;" width="26.034" height="17.356"/>
	<rect x="27.287" y="485.966" style="fill:#FFCD6B;" width="26.034" height="17.356"/>
	
		<rect x="487.256" y="482.345" transform="matrix(-0.7071 0.7071 -0.7071 -0.7071 1196.359 493.6838)" style="fill:#FFCD6B;" width="17.356" height="24.541"/>
</g>
<path style="fill:#F0DBC2;" d="M469.863,257.684l7.125-118.836c0.833-13.52-9.459-25.157-22.988-25.991
	c-0.495-0.026-0.998-0.043-1.493-0.043l0,0c-13.546,0-24.533,10.986-24.524,24.541c0,0.495,0.017,0.998,0.043,1.493l7.125,118.836
	c-11.351,9.025-17.781,22.875-17.356,37.367c0,23.96,15.542,43.39,34.712,43.39s34.712-19.43,34.712-43.39
	C487.644,280.559,481.214,266.709,469.863,257.684z"/>
<path style="fill:#FFCD6B;" d="M459.181,428.11c-7.047,0.035-13.807,2.777-18.883,7.671c-0.729-14.917-12.904-26.711-27.839-26.954
	c-7.854,0.035-15.317,3.428-20.506,9.32c-4.773-14.483-20.385-22.354-34.868-17.582c-8.313,2.742-14.839,9.259-17.582,17.582
	c-5.189-5.892-12.652-9.285-20.506-9.32c-11.88,0.13-22.389,7.749-26.216,18.996c-5.189-5.892-12.652-9.277-20.506-9.32
	c-15.716,0.252-28.264,13.182-28.038,28.898c0,0.286,0.078,0.555,0.087,0.868c10.917,22.415,27.709,41.437,48.597,55.053h145.616
	c20.324-13.26,36.812-31.622,47.816-53.248C483.47,437.343,472.232,428.249,459.181,428.11z"/>
<g>
</g>
<g>
</g>
<g>
</g>
<g>
</g>
<g>
</g>
<g>
</g>
<g>
</g>
<g>
</g>
<g>
</g>
<g>
</g>
<g>
</g>
<g>
</g>
<g>
</g>
<g>
</g>
<g>
</g>
</svg>
