<?xml version="1.0" encoding="iso-8859-1"?>
<!-- Generator: Adobe Illustrator 19.0.0, SVG Export Plug-In . SVG Version: 6.00 Build 0)  -->
<svg version="1.1" id="Capa_1" xmlns="http://www.w3.org/2000/svg" xmlns:xlink="http://www.w3.org/1999/xlink" x="0px" y="0px"
	 viewBox="0 0 512.004 512.004" style="enable-background:new 0 0 512.004 512.004;" xml:space="preserve">
<path style="fill:#C96E23;" d="M441.374,203.043V82.178c0.547-42.522-31.788-78.282-74.15-81.998
	c-32.282-2.172-62.657,15.448-76.799,44.552c-2.092,4.405-7.362,6.276-11.767,4.175c-1.827-0.874-3.31-2.348-4.175-4.175
	C260.341,15.628,229.966-1.991,197.684,0.18c-42.345,3.743-74.645,39.494-74.097,81.998v120.865"/>
<path style="fill:#D68033;" d="M367.224,114.937c-32.282-2.172-62.657,15.448-76.799,44.552c-2.092,4.405-7.362,6.276-11.767,4.175
	c-1.827-0.874-3.31-2.348-4.175-4.175c-14.142-29.104-44.517-46.724-76.799-44.552c-42.345,3.743-74.654,39.494-74.097,81.998
	v112.038c0,9.754,7.901,17.655,17.655,17.655h141.239v-17.655c0,9.754,7.901,17.655,17.655,17.655h141.239V196.935
	C441.931,154.413,409.596,118.653,367.224,114.937z"/>
<path style="fill:#F09E3E;" d="M361.927,229.526L361.927,229.526c43.881,0,79.447,35.566,79.447,79.447v96.484
	c0,19.844-16.084,35.928-35.928,35.928H282.481l0,0V308.973C282.481,265.1,318.055,229.526,361.927,229.526z"/>
<path style="fill:#F0DBC2;" d="M158.896,220.698h88.274c19.5,0,35.31,15.81,35.31,35.31v70.619l0,0H141.242
	c-9.754,0-17.655-7.901-17.655-17.655v-52.965C123.587,236.508,139.397,220.698,158.896,220.698z"/>
<g>
	<path style="fill:#F09E3E;" d="M150.069,300.145L150.069,300.145c43.881,0,79.447,35.566,79.447,79.447l0,0v132.412l0,0H106.55
		c-19.844,0-35.928-16.084-35.928-35.928v-96.484C70.622,335.72,106.197,300.145,150.069,300.145L150.069,300.145z"/>
	<path style="fill:#F09E3E;" d="M167.724,79.459h-17.655c0.018-23.569,14.865-44.579,37.075-52.453l5.879,16.631
		C177.867,49.031,167.742,63.376,167.724,79.459z"/>
	<path style="fill:#F09E3E;" d="M167.724,194.216h-17.655c0.018-23.569,14.865-44.579,37.075-52.453l5.879,16.631
		C177.867,163.788,167.742,178.132,167.724,194.216z"/>
	<path style="fill:#F09E3E;" d="M326.618,79.459h-17.655c0.018-23.569,14.865-44.579,37.075-52.453l5.879,16.631
		C336.76,49.031,326.635,63.376,326.618,79.459z"/>
	<path style="fill:#F09E3E;" d="M326.618,194.216h-17.655c0.018-23.569,14.865-44.579,37.075-52.453l5.879,16.631
		C336.76,163.788,326.635,178.132,326.618,194.216z"/>
</g>
<g>
	<rect x="97.104" y="397.238" style="fill:#FFCD6B;" width="105.929" height="17.655"/>
	<path style="fill:#FFCD6B;" d="M114.759,379.592H97.104c0.018-23.569,14.865-44.579,37.075-52.453l5.879,16.631
		C124.902,349.164,114.777,363.508,114.759,379.592z"/>
	<rect x="308.963" y="326.619" style="fill:#FFCD6B;" width="105.929" height="17.655"/>
	<path style="fill:#FFCD6B;" d="M326.618,308.973h-17.655c0.018-23.569,14.865-44.579,37.075-52.453l5.879,16.631
		C336.76,278.544,326.635,292.889,326.618,308.973z"/>
</g>
<g>
</g>
<g>
</g>
<g>
</g>
<g>
</g>
<g>
</g>
<g>
</g>
<g>
</g>
<g>
</g>
<g>
</g>
<g>
</g>
<g>
</g>
<g>
</g>
<g>
</g>
<g>
</g>
<g>
</g>
</svg>
