<?xml version="1.0" encoding="iso-8859-1"?>
<!-- Generator: Adobe Illustrator 19.0.0, SVG Export Plug-In . SVG Version: 6.00 Build 0)  -->
<svg version="1.1" id="Capa_1" xmlns="http://www.w3.org/2000/svg" xmlns:xlink="http://www.w3.org/1999/xlink" x="0px" y="0px"
	 viewBox="0 0 512.002 512.002" style="enable-background:new 0 0 512.002 512.002;" xml:space="preserve">
<path style="fill:#965735;" d="M0.019,422.396v42.665c0,9.429,7.637,17.066,17.066,17.066h426.652
	c9.429,0,17.066-7.637,17.066-17.066v-42.665H0.019z"/>
<path style="fill:#BF7341;" d="M17.086,166.404h426.652c9.429,0,17.066,7.637,17.066,17.066v247.458
	c0,9.429-7.637,17.066-17.066,17.066H17.086c-9.429,0-17.066-7.637-17.066-17.066V183.47C0.019,174.05,7.665,166.404,17.086,166.404
	z"/>
<path style="fill:#B56D3E;" d="M443.738,166.404h-10.24C325.308,344.881,107.331,413.402,1.171,436.962
	c2.5,6.622,8.832,11.016,15.914,11.033h426.652c9.429,0,17.066-7.637,17.066-17.066V183.47
	C460.804,174.05,453.167,166.404,443.738,166.404z"/>
<path style="fill:#F09E3E;" d="M102.416,64.008L102.416,64.008c0,18.85,15.283,34.132,34.132,34.132l0,0v136.529
	c0,9.429,7.637,17.066,17.066,17.066h255.991c9.429,0,17.066-7.637,17.066-17.066V98.14l0,0c18.849,0,34.132-15.283,34.132-34.132
	l0,0c0-18.85-15.283-34.132-34.132-34.132H136.548C117.699,29.875,102.416,45.158,102.416,64.008z"/>
<path style="fill:#E6CCAF;" d="M102.416,64.008L102.416,64.008c0,18.85,15.283,34.132,34.132,34.132l0,0v136.529
	c0,9.429,7.637,17.066,17.066,17.066h136.529c9.429,0,17.066-7.637,17.066-17.066V98.14l0,0c18.849,0,34.132-15.283,34.132-34.132
	l0,0c0-18.85-15.283-34.132-34.132-34.132H136.548C117.699,29.875,102.416,45.158,102.416,64.008z"/>
<path style="fill:#F0DBC2;" d="M2.187,118.619L2.187,118.619c4.804,13.269,17.382,22.126,31.487,22.186h0.896l30.77,140.189
	c1.724,7.833,8.661,13.405,16.674,13.405h135.368c9.429,0,17.066-7.646,17.058-17.075c0-1.314-0.154-2.628-0.452-3.908
	l-31.299-132.612h2.56c18.815-0.213,33.893-15.633,33.68-34.439c-0.043-3.84-0.734-7.637-2.039-11.247l0,0
	c-4.693-13.457-17.348-22.502-31.598-22.578H33.674C14.858,72.763-0.219,88.199,0.002,107.014
	C0.054,110.982,0.787,114.907,2.187,118.619z"/>
<g>
	<rect x="358.39" y="89.607" style="fill:#D68033;" width="68.264" height="17.066"/>
	<rect x="332.791" y="132.272" style="fill:#D68033;" width="17.066" height="17.066"/>
	<rect x="349.857" y="200.536" style="fill:#D68033;" width="17.066" height="17.066"/>
	<rect x="383.99" y="166.404" style="fill:#D68033;" width="17.066" height="17.066"/>
	<path style="fill:#D68033;" d="M358.408,396.797h25.599l8.533-17.066h68.264l8.533,17.066h8.533
		c18.849,0,34.132-15.283,34.132-34.132l0,0c0-18.85-15.283-34.132-34.132-34.132H358.408V396.797z"/>
</g>
<path style="fill:#F0DBC2;" d="M358.408,396.797l-17.066-8.533l-17.066,8.533l-17.066-8.533l-17.066,8.533l-17.066-8.533
	l-17.066,8.533l-17.066-8.533l-17.066,8.533l-17.066-8.533l-17.066,8.533l-17.066-8.533l-17.066,8.533l-17.066-8.533l-17.066,8.533
	l-17.066-8.533l-17.066,8.533l-17.066-8.533l-17.066,8.533H34.152v-34.132c0-18.85,15.283-34.132,34.132-34.132h290.124V396.797z"/>
<g>
	<rect x="383.99" y="345.598" style="fill:#965735;" width="17.066" height="17.066"/>
	<rect x="460.787" y="345.598" style="fill:#965735;" width="17.066" height="17.066"/>
</g>
<g>
</g>
<g>
</g>
<g>
</g>
<g>
</g>
<g>
</g>
<g>
</g>
<g>
</g>
<g>
</g>
<g>
</g>
<g>
</g>
<g>
</g>
<g>
</g>
<g>
</g>
<g>
</g>
<g>
</g>
</svg>
