<?xml version="1.0" encoding="iso-8859-1"?>
<!-- Generator: Adobe Illustrator 19.0.0, SVG Export Plug-In . SVG Version: 6.00 Build 0)  -->
<svg version="1.1" id="Capa_1" xmlns="http://www.w3.org/2000/svg" xmlns:xlink="http://www.w3.org/1999/xlink" x="0px" y="0px"
	 viewBox="0 0 512 512" style="enable-background:new 0 0 512 512;" xml:space="preserve">
<path style="fill:#F09E3E;" d="M70.621,150.069L70.621,150.069c0,19.5,15.81,35.31,35.31,35.31l0,0v141.241
	c0,9.754,7.901,17.655,17.655,17.655h335.448c9.754,0,17.655-7.901,17.655-17.655V185.379l0,0c19.5,0,35.31-15.81,35.31-35.31l0,0
	c0-19.5-15.81-35.31-35.31-35.31H105.931C86.431,114.759,70.621,130.569,70.621,150.069z"/>
<rect x="423.724" y="291.31" style="fill:#D68033;" width="17.655" height="17.655"/>
<path style="fill:#F0DBC2;" d="M70.621,150.069L70.621,150.069c0,19.5,15.81,35.31,35.31,35.31l0,0v141.241
	c0,9.754,7.901,17.655,17.655,17.655h141.241c9.754,0,17.655-7.901,17.655-17.655V185.379l0,0c19.5,0,35.31-15.81,35.31-35.31l0,0
	c0-19.5-15.81-35.31-35.31-35.31H105.931C86.431,114.759,70.621,130.569,70.621,150.069z"/>
<path style="fill:#E6CCAF;" d="M70.621,150.069L70.621,150.069c0,19.5,15.81,35.31,35.31,35.31l0,0v141.241
	c0,9.754,7.901,17.655,17.655,17.655h141.241c9.754,0,17.655-7.901,17.655-17.655V185.379l0,0c19.5,0,35.31-15.81,35.31-35.31l0,0
	c0-19.5-15.81-35.31-35.31-35.31H105.931C86.431,114.759,70.621,130.569,70.621,150.069z"/>
<g>
	<rect x="335.448" y="176.552" style="fill:#D68033;" width="17.655" height="17.655"/>
	<rect x="317.793" y="247.172" style="fill:#D68033;" width="17.655" height="17.655"/>
	<rect x="370.759" y="176.552" style="fill:#D68033;" width="105.931" height="17.655"/>
	<rect x="353.103" y="291.31" style="fill:#D68033;" width="17.655" height="17.655"/>
	<rect x="388.414" y="220.69" style="fill:#D68033;" width="17.655" height="17.655"/>
</g>
<path style="fill:#F0DBC2;" d="M0,203.034L0,203.034c0,19.5,15.81,35.31,35.31,35.31l0,0v141.241
	c0,9.754,7.901,17.655,17.655,17.655h141.241c9.754,0,17.655-7.901,17.655-17.655V238.345l0,0c19.5,0,35.31-15.81,35.31-35.31l0,0
	c0-19.5-15.81-35.31-35.31-35.31H35.31C15.81,167.724,0,183.534,0,203.034z"/>
<path style="fill:#F09235;" d="M444.663,194.207c-23.093,58.474-60.672,110.115-109.215,150.069h123.586
	c9.754,0,17.655-7.901,17.655-17.655V194.207H444.663z"/>
<g>
</g>
<g>
</g>
<g>
</g>
<g>
</g>
<g>
</g>
<g>
</g>
<g>
</g>
<g>
</g>
<g>
</g>
<g>
</g>
<g>
</g>
<g>
</g>
<g>
</g>
<g>
</g>
<g>
</g>
</svg>
