<?xml version="1.0" encoding="iso-8859-1"?>
<!-- Generator: Adobe Illustrator 19.0.0, SVG Export Plug-In . SVG Version: 6.00 Build 0)  -->
<svg version="1.1" id="Capa_1" xmlns="http://www.w3.org/2000/svg" xmlns:xlink="http://www.w3.org/1999/xlink" x="0px" y="0px"
	 viewBox="0 0 511.995 511.995" style="enable-background:new 0 0 511.995 511.995;" xml:space="preserve">
<path style="fill:#BF7341;" d="M511.98,97.232c-0.026-12.924-7.151-24.79-18.539-30.899c17.118-9.208,23.536-30.554,14.319-47.672
	c-9.217-17.118-30.554-23.536-47.672-14.319c-6.074,3.266-11.053,8.246-14.319,14.319C436.675,1.596,415.47-4.866,398.405,4.227
	c-6.136,3.266-11.159,8.299-14.434,14.434c-9.093-17.065-30.298-23.527-47.363-14.434c-6.136,3.266-11.159,8.299-14.434,14.434
	C313.081,1.596,291.875-4.866,274.81,4.227c-6.136,3.266-11.159,8.299-14.434,14.434c-9.208-17.118-30.554-23.536-47.672-14.319
	s-23.536,30.554-14.319,47.672c3.266,6.074,8.246,11.053,14.319,14.319c-17.065,9.093-23.527,30.298-14.434,47.363
	c3.266,6.136,8.299,11.159,14.434,14.434c-17.065,9.093-23.527,30.298-14.434,47.363c3.266,6.136,8.299,11.159,14.434,14.434
	c-17.065,9.093-23.527,30.298-14.434,47.363c3.266,6.136,8.299,11.159,14.434,14.434c-17.065,9.093-23.527,30.298-14.434,47.363
	c3.266,6.136,8.299,11.159,14.434,14.434c-17.065,9.093-23.527,30.298-14.434,47.363c3.266,6.136,8.299,11.159,14.434,14.434
	c-17.118,9.208-23.536,30.554-14.319,47.672c9.208,17.118,30.554,23.536,47.672,14.319c6.074-3.266,11.053-8.246,14.319-14.319
	c9.093,17.065,30.298,23.527,47.363,14.434c6.136-3.266,11.159-8.298,14.434-14.434c9.093,17.065,30.298,23.527,47.363,14.434
	c6.136-3.266,11.159-8.298,14.434-14.434c9.093,17.065,30.298,23.527,47.363,14.434c6.136-3.266,11.159-8.298,14.434-14.434
	c9.208,17.118,30.554,23.536,47.672,14.319c17.118-9.217,23.536-30.554,14.319-47.672c-3.266-6.074-8.246-11.053-14.319-14.319
	c17.065-9.093,23.527-30.298,14.434-47.363c-3.266-6.136-8.298-11.159-14.434-14.434c17.065-9.093,23.527-30.298,14.434-47.363
	c-3.266-6.136-8.298-11.159-14.434-14.434c17.065-9.093,23.527-30.298,14.434-47.363c-3.266-6.136-8.298-11.159-14.434-14.434
	c17.065-9.093,23.527-30.298,14.434-47.363c-3.266-6.136-8.298-11.159-14.434-14.434C504.829,122.021,511.953,110.156,511.98,97.232
	z"/>
<path style="fill:#B56D3E;" d="M511.98,97.232c-0.026-12.924-7.151-24.79-18.539-30.899c17.1-9.155,23.545-30.44,14.39-47.549
	c-5.12-9.57-14.39-16.235-25.09-18.054c-55.6,251.568-195.765,371.199-283.668,423.144c9.596,16.791,30.987,22.627,47.778,13.03
	c5.729-3.275,10.417-8.095,13.525-13.913c9.093,17.065,30.298,23.527,47.363,14.434c6.136-3.266,11.159-8.298,14.434-14.434
	c9.093,17.065,30.298,23.527,47.363,14.434c6.136-3.266,11.159-8.298,14.434-14.434c9.093,17.065,30.298,23.527,47.363,14.434
	c6.136-3.266,11.159-8.298,14.434-14.434c9.208,17.118,30.554,23.536,47.672,14.319c17.118-9.217,23.536-30.554,14.319-47.672
	c-3.266-6.074-8.246-11.053-14.319-14.319c17.065-9.093,23.527-30.298,14.434-47.363c-3.266-6.136-8.298-11.159-14.434-14.434
	c17.065-9.093,23.527-30.298,14.434-47.363c-3.266-6.136-8.298-11.159-14.434-14.434c17.065-9.093,23.527-30.298,14.434-47.363
	c-3.266-6.136-8.298-11.159-14.434-14.434c17.065-9.093,23.527-30.298,14.434-47.363c-3.266-6.136-8.298-11.159-14.434-14.434
	C504.829,122.021,511.953,110.156,511.98,97.232z"/>
<g>
	<rect x="273.619" y="61.884" style="fill:#965735;" width="17.656" height="17.656"/>
	<rect x="344.244" y="61.884" style="fill:#965735;" width="17.656" height="17.656"/>
	<rect x="414.87" y="61.884" style="fill:#965735;" width="17.656" height="17.656"/>
</g>
<rect id="SVGCleanerId_0" x="273.619" y="132.509" style="fill:#965735;" width="17.656" height="17.656"/>
<rect id="SVGCleanerId_1" x="344.244" y="132.509" style="fill:#965735;" width="17.656" height="17.656"/>
<rect id="SVGCleanerId_2" x="414.87" y="132.509" style="fill:#965735;" width="17.656" height="17.656"/>
<g>
	<rect id="SVGCleanerId_0_1_" x="273.619" y="132.509" style="fill:#965735;" width="17.656" height="17.656"/>
</g>
<g>
	<rect id="SVGCleanerId_1_1_" x="344.244" y="132.509" style="fill:#965735;" width="17.656" height="17.656"/>
</g>
<g>
	<rect id="SVGCleanerId_2_1_" x="414.87" y="132.509" style="fill:#965735;" width="17.656" height="17.656"/>
</g>
<rect id="SVGCleanerId_3" x="273.619" y="203.135" style="fill:#965735;" width="17.656" height="17.656"/>
<rect id="SVGCleanerId_4" x="344.244" y="203.135" style="fill:#965735;" width="17.656" height="17.656"/>
<rect id="SVGCleanerId_5" x="414.87" y="203.135" style="fill:#965735;" width="17.656" height="17.656"/>
<g>
	<rect id="SVGCleanerId_3_1_" x="273.619" y="203.135" style="fill:#965735;" width="17.656" height="17.656"/>
</g>
<g>
	<rect id="SVGCleanerId_4_1_" x="344.244" y="203.135" style="fill:#965735;" width="17.656" height="17.656"/>
</g>
<g>
	<rect id="SVGCleanerId_5_1_" x="414.87" y="203.135" style="fill:#965735;" width="17.656" height="17.656"/>
</g>
<rect id="SVGCleanerId_6" x="273.619" y="273.76" style="fill:#965735;" width="17.656" height="17.656"/>
<rect id="SVGCleanerId_7" x="344.244" y="273.76" style="fill:#965735;" width="17.656" height="17.656"/>
<rect id="SVGCleanerId_8" x="414.87" y="273.76" style="fill:#965735;" width="17.656" height="17.656"/>
<g>
	<rect id="SVGCleanerId_6_1_" x="273.619" y="273.76" style="fill:#965735;" width="17.656" height="17.656"/>
</g>
<g>
	<rect id="SVGCleanerId_7_1_" x="344.244" y="273.76" style="fill:#965735;" width="17.656" height="17.656"/>
</g>
<g>
	<rect id="SVGCleanerId_8_1_" x="414.87" y="273.76" style="fill:#965735;" width="17.656" height="17.656"/>
</g>
<rect id="SVGCleanerId_9" x="273.619" y="344.386" style="fill:#965735;" width="17.656" height="17.656"/>
<rect id="SVGCleanerId_10" x="344.244" y="344.386" style="fill:#965735;" width="17.656" height="17.656"/>
<rect id="SVGCleanerId_11" x="414.87" y="344.386" style="fill:#965735;" width="17.656" height="17.656"/>
<g>
	<rect id="SVGCleanerId_9_1_" x="273.619" y="344.386" style="fill:#965735;" width="17.656" height="17.656"/>
</g>
<g>
	<rect id="SVGCleanerId_10_1_" x="344.244" y="344.386" style="fill:#965735;" width="17.656" height="17.656"/>
</g>
<g>
	<rect id="SVGCleanerId_11_1_" x="414.87" y="344.386" style="fill:#965735;" width="17.656" height="17.656"/>
</g>
<path id="SVGCleanerId_12" style="fill:#F09E3E;" d="M285.404,393.32l-0.088,0.079l0,0c9.543,20.261,0.848,44.415-19.413,53.958
	c-2.366,1.112-4.847,2.004-7.38,2.64l0,0v0.079c0.106,22.018-17.648,39.948-39.665,40.054c-2.869,0.018-5.738-0.283-8.546-0.883
	h-0.071l0,0c-9.208,19.66-32.611,28.127-52.263,18.919c-2.843-1.333-5.509-2.993-7.954-4.961l0,0l0,0
	c-16.95,13.578-41.696,10.841-55.273-6.109c-1.933-2.419-3.575-5.05-4.891-7.848l0,0H89.78c-21.532,4.599-42.72-9.12-47.319-30.651
	c-0.6-2.799-0.892-5.659-0.883-8.519v-0.088l0,0c-21.717-5.465-34.898-27.509-29.433-49.226c0.636-2.543,1.518-5.006,2.64-7.38l0,0
	l-0.088-0.071c-17.33-14.452-19.669-40.212-5.226-57.542c1.58-1.898,3.328-3.646,5.226-5.226l0.088-0.079l0,0
	c-9.543-20.261-0.856-44.415,19.404-53.958c2.357-1.112,4.811-1.986,7.336-2.631l0,0v-0.079
	c-0.106-22.018,17.648-39.948,39.665-40.054c2.869-0.018,5.738,0.283,8.546,0.883h0.071l0,0
	c4.564-9.605,12.792-16.985,22.839-20.464c12.748-4.449,26.891-1.986,37.379,6.506l0,0l0,0c16.95-13.578,41.696-10.841,55.273,6.109
	c1.933,2.419,3.575,5.05,4.891,7.848l0,0h0.079c21.523-4.626,42.728,9.075,47.354,30.599c0.609,2.816,0.9,5.694,0.892,8.572v0.088
	l0,0c21.717,5.465,34.898,27.509,29.433,49.226c-0.636,2.543-1.518,5.006-2.64,7.38l0,0l0.088,0.071
	c17.33,14.452,19.669,40.212,5.226,57.542C289.041,390.001,287.293,391.74,285.404,393.32z"/>
<g>
	<path id="SVGCleanerId_12_1_" style="fill:#F09E3E;" d="M285.404,393.32l-0.088,0.079l0,0c9.543,20.261,0.848,44.415-19.413,53.958
		c-2.366,1.112-4.847,2.004-7.38,2.64l0,0v0.079c0.106,22.018-17.648,39.948-39.665,40.054c-2.869,0.018-5.738-0.283-8.546-0.883
		h-0.071l0,0c-9.208,19.66-32.611,28.127-52.263,18.919c-2.843-1.333-5.509-2.993-7.954-4.961l0,0l0,0
		c-16.95,13.578-41.696,10.841-55.273-6.109c-1.933-2.419-3.575-5.05-4.891-7.848l0,0H89.78c-21.532,4.599-42.72-9.12-47.319-30.651
		c-0.6-2.799-0.892-5.659-0.883-8.519v-0.088l0,0c-21.717-5.465-34.898-27.509-29.433-49.226c0.636-2.543,1.518-5.006,2.64-7.38l0,0
		l-0.088-0.071c-17.33-14.452-19.669-40.212-5.226-57.542c1.58-1.898,3.328-3.646,5.226-5.226l0.088-0.079l0,0
		c-9.543-20.261-0.856-44.415,19.404-53.958c2.357-1.112,4.811-1.986,7.336-2.631l0,0v-0.079
		c-0.106-22.018,17.648-39.948,39.665-40.054c2.869-0.018,5.738,0.283,8.546,0.883h0.071l0,0
		c4.564-9.605,12.792-16.985,22.839-20.464c12.748-4.449,26.891-1.986,37.379,6.506l0,0l0,0
		c16.95-13.578,41.696-10.841,55.273,6.109c1.933,2.419,3.575,5.05,4.891,7.848l0,0h0.079c21.523-4.626,42.728,9.075,47.354,30.599
		c0.609,2.816,0.9,5.694,0.892,8.572v0.088l0,0c21.717,5.465,34.898,27.509,29.433,49.226c-0.636,2.543-1.518,5.006-2.64,7.38l0,0
		l0.088,0.071c17.33,14.452,19.669,40.212,5.226,57.542C289.041,390.001,287.293,391.74,285.404,393.32z"/>
</g>
<path style="fill:#F09235;" d="M285.316,393.4l0.088-0.079c17.33-14.452,19.669-40.212,5.226-57.542
	c-1.58-1.898-3.328-3.646-5.226-5.226l-0.088-0.071c9.543-20.261,0.848-44.423-19.413-53.967c-2.366-1.112-4.838-1.995-7.38-2.64
	l0,0v-0.079c0.053-22.07-17.798-40.001-39.859-40.054c-0.953,0-1.907,0.026-2.86,0.097c18.301,10.567,25.487,33.362,16.553,52.51
	l0.088,0.071c17.33,14.452,19.669,40.212,5.226,57.542c-1.58,1.898-3.328,3.646-5.226,5.226l-0.088,0.079l0,0
	c9.543,20.261,0.848,44.415-19.413,53.958c-2.375,1.121-4.847,2.004-7.389,2.64l0,0v0.079c0.106,22.018-17.648,39.948-39.665,40.054
	c-2.869,0.018-5.738-0.283-8.546-0.883h-0.071l0,0c-9.217,19.652-32.611,28.118-52.272,18.91c-2.834-1.333-5.509-2.993-7.945-4.961
	l0,0l0,0c-16.88,13.56-41.563,10.876-55.132-6.012c-0.062-0.071-0.115-0.15-0.177-0.221c1.368,21.92,20.243,38.588,42.163,37.22
	c1.969-0.124,3.929-0.388,5.862-0.803h0.079l0,0c9.234,19.652,32.656,28.1,52.307,18.866c2.807-1.315,5.447-2.966,7.866-4.9l0,0l0,0
	c16.932,13.578,41.669,10.859,55.247-6.074c1.942-2.428,3.593-5.067,4.917-7.884l0,0h0.071c21.523,4.608,42.711-9.102,47.328-30.625
	c0.6-2.807,0.9-5.677,0.883-8.546v-0.079l0,0c21.717-5.456,34.898-27.491,29.442-49.208c-0.636-2.542-1.527-5.014-2.64-7.389
	L285.316,393.4z"/>
<g>
	<rect x="70.57" y="282.588" style="fill:#965735;" width="17.656" height="17.656"/>
	<rect x="141.196" y="282.588" style="fill:#965735;" width="17.656" height="17.656"/>
	<rect x="211.821" y="282.588" style="fill:#965735;" width="17.656" height="17.656"/>
</g>
<rect id="SVGCleanerId_13" x="70.57" y="353.214" style="fill:#965735;" width="17.656" height="17.656"/>
<rect id="SVGCleanerId_14" x="141.196" y="353.214" style="fill:#965735;" width="17.656" height="17.656"/>
<rect id="SVGCleanerId_15" x="211.821" y="353.214" style="fill:#965735;" width="17.656" height="17.656"/>
<g>
	<rect id="SVGCleanerId_13_1_" x="70.57" y="353.214" style="fill:#965735;" width="17.656" height="17.656"/>
</g>
<g>
	<rect id="SVGCleanerId_14_1_" x="141.196" y="353.214" style="fill:#965735;" width="17.656" height="17.656"/>
</g>
<g>
	<rect id="SVGCleanerId_15_1_" x="211.821" y="353.214" style="fill:#965735;" width="17.656" height="17.656"/>
</g>
<rect id="SVGCleanerId_16" x="70.57" y="423.84" style="fill:#965735;" width="17.656" height="17.656"/>
<rect id="SVGCleanerId_17" x="141.196" y="423.84" style="fill:#965735;" width="17.656" height="17.656"/>
<rect id="SVGCleanerId_18" x="211.821" y="423.84" style="fill:#965735;" width="17.656" height="17.656"/>
<g>
	<rect id="SVGCleanerId_16_1_" x="70.57" y="423.84" style="fill:#965735;" width="17.656" height="17.656"/>
</g>
<g>
	<rect id="SVGCleanerId_17_1_" x="141.196" y="423.84" style="fill:#965735;" width="17.656" height="17.656"/>
</g>
<g>
	<rect id="SVGCleanerId_18_1_" x="211.821" y="423.84" style="fill:#965735;" width="17.656" height="17.656"/>
</g>
<g>
</g>
<g>
</g>
<g>
</g>
<g>
</g>
<g>
</g>
<g>
</g>
<g>
</g>
<g>
</g>
<g>
</g>
<g>
</g>
<g>
</g>
<g>
</g>
<g>
</g>
<g>
</g>
<g>
</g>
</svg>
