<?xml version="1.0" encoding="iso-8859-1"?>
<!-- Generator: Adobe Illustrator 19.0.0, SVG Export Plug-In . SVG Version: 6.00 Build 0)  -->
<svg version="1.1" id="Capa_1" xmlns="http://www.w3.org/2000/svg" xmlns:xlink="http://www.w3.org/1999/xlink" x="0px" y="0px"
	 viewBox="0 0 512 512" style="enable-background:new 0 0 512 512;" xml:space="preserve">
<path style="fill:#F2B9B8;" d="M392.533,388.267v27.426l13.875-11.563c6.639-5.538,16.401-5.094,22.511,1.015l0.324,0.324
	c6.784,6.716,6.844,17.664,0.119,24.448c-0.683,0.691-1.425,1.323-2.219,1.894l-34.611,24.721v25.6h-102.4v-93.867
	c0-28.279,22.921-51.2,51.2-51.2l0,0C369.613,337.067,392.533,359.987,392.533,388.267z"/>
<rect x="307.2" y="482.133" style="fill:#FBCCAD;" width="68.267" height="25.6"/>
<rect y="4.267" style="fill:#F2B9B8;" width="512" height="290.133"/>
<polygon style="fill:#F2AEAC;" points="512,4.267 401.067,4.267 69.487,294.4 512,294.4 "/>
<path style="fill:#BF7341;" d="M51.2,38.4h324.267c9.429,0,17.067,7.637,17.067,17.067V243.2c0,9.429-7.637,17.067-17.067,17.067
	H51.2c-9.429,0-17.067-7.637-17.067-17.067V55.467C34.133,46.037,41.771,38.4,51.2,38.4z"/>
<g>
	<circle style="fill:#F0DBC2;" cx="452.267" cy="64" r="25.6"/>
	<circle style="fill:#F0DBC2;" cx="452.267" cy="149.333" r="25.6"/>
	<circle style="fill:#F0DBC2;" cx="452.267" cy="234.667" r="25.6"/>
	<path style="fill:#F0DBC2;" d="M85.333,192h256c9.429,0,17.067,7.637,17.067,17.067v170.667c0,9.429-7.637,17.067-17.067,17.067
		h-256c-9.429,0-17.067-7.637-17.067-17.067V209.067C68.267,199.637,75.904,192,85.333,192z"/>
</g>
<g>
	<rect x="25.6" y="294.4" style="fill:#BF7341;" width="34.133" height="34.133"/>
	<rect x="452.267" y="294.4" style="fill:#BF7341;" width="34.133" height="34.133"/>
</g>
<path style="fill:#965735;" d="M341.333,89.6h-256c-14.14,0-25.6,11.46-25.6,25.6v59.733H76.8v-25.6h25.6V166.4h17.067v-17.067
	h17.067V166.4H153.6v-17.067h17.067V166.4h17.067v-17.067H204.8V166.4h17.067v-17.067h17.067V166.4H256v-17.067h17.067V166.4h17.067
	v-17.067H307.2V166.4h17.067v-17.067h25.6v25.6h17.067V115.2C366.933,101.06,355.473,89.6,341.333,89.6z M76.8,132.267V115.2
	c0-4.71,3.823-8.533,8.533-8.533H102.4v25.6H76.8z M119.467,132.267v-25.6h17.067v25.6H119.467z M153.6,132.267v-25.6h17.067v25.6
	H153.6z M187.733,132.267v-25.6H204.8v25.6H187.733z M221.867,132.267v-25.6h17.067v25.6H221.867z M256,132.267v-25.6h17.067v25.6
	H256z M290.133,132.267v-25.6H307.2v25.6H290.133z M324.267,132.267v-25.6h17.067c4.71,0,8.533,3.823,8.533,8.533v17.067H324.267z"
	/>
<path style="fill:#EBD3B7;" d="M341.333,192h-26.317c-50.85,123.827-176.247,181.402-237.534,202.803
	c2.415,1.297,5.111,1.98,7.851,1.997h256c9.429,0,17.067-7.637,17.067-17.067V209.067C358.4,199.637,350.763,192,341.333,192z"/>
<g>
	<path style="fill:#D68033;" d="M139.563,233.131L139.563,233.131c6.417-1.126,12.535,3.157,13.67,9.574
		c0.555,3.166-0.205,6.434-2.108,9.028l0,0c3.857,5.257,2.722,12.638-2.534,16.495c-2.594,1.903-5.854,2.662-9.028,2.108l0,0
		c-3.345,6.383-11.238,8.849-17.63,5.495c-2.347-1.229-4.267-3.149-5.495-5.495l0,0c-6.417,1.126-12.535-3.157-13.67-9.574
		c-0.555-3.166,0.205-6.434,2.108-9.028l0,0c-3.857-5.257-2.722-12.638,2.534-16.495c2.594-1.903,5.854-2.662,9.028-2.108l0,0
		c3.345-6.383,11.238-8.849,17.63-5.495C136.414,228.864,138.334,230.784,139.563,233.131z"/>
	<path style="fill:#D68033;" d="M224.896,233.131L224.896,233.131c6.417-1.126,12.535,3.157,13.67,9.574
		c0.555,3.166-0.205,6.434-2.108,9.028l0,0c3.857,5.257,2.722,12.638-2.534,16.495c-2.594,1.903-5.854,2.662-9.028,2.108l0,0
		c-3.345,6.383-11.238,8.849-17.63,5.495c-2.347-1.229-4.267-3.149-5.495-5.495l0,0c-6.417,1.126-12.535-3.157-13.67-9.574
		c-0.555-3.166,0.205-6.434,2.108-9.028l0,0c-3.857-5.257-2.722-12.638,2.534-16.495c2.594-1.903,5.854-2.662,9.028-2.108l0,0
		c3.345-6.383,11.238-8.849,17.63-5.495C221.747,228.864,223.667,230.784,224.896,233.131z"/>
	<path style="fill:#D68033;" d="M310.229,233.131L310.229,233.131c6.417-1.126,12.535,3.157,13.67,9.574
		c0.555,3.166-0.205,6.434-2.108,9.028l0,0c3.857,5.257,2.722,12.638-2.534,16.495c-2.594,1.903-5.854,2.662-9.028,2.108l0,0
		c-3.345,6.383-11.238,8.849-17.63,5.495c-2.347-1.229-4.267-3.149-5.495-5.495l0,0c-6.417,1.126-12.535-3.157-13.67-9.574
		c-0.555-3.166,0.205-6.434,2.108-9.028l0,0c-3.857-5.257-2.722-12.638,2.534-16.495c2.594-1.903,5.854-2.662,9.028-2.108l0,0
		c3.345-6.383,11.238-8.849,17.63-5.495C307.081,228.864,309.001,230.784,310.229,233.131z"/>
	<path style="fill:#D68033;" d="M139.563,318.464L139.563,318.464c6.417-1.126,12.535,3.157,13.67,9.574
		c0.555,3.166-0.205,6.434-2.108,9.028l0,0c3.857,5.257,2.722,12.638-2.534,16.495c-2.594,1.903-5.854,2.662-9.028,2.108l0,0
		c-3.345,6.383-11.238,8.849-17.63,5.495c-2.347-1.229-4.267-3.149-5.495-5.495l0,0c-6.417,1.126-12.535-3.157-13.67-9.574
		c-0.555-3.166,0.205-6.434,2.108-9.028l0,0c-3.857-5.257-2.722-12.638,2.534-16.495c2.594-1.903,5.854-2.662,9.028-2.108l0,0
		c3.345-6.383,11.238-8.849,17.63-5.495C136.414,314.197,138.334,316.117,139.563,318.464z"/>
	<path style="fill:#D68033;" d="M224.896,318.464L224.896,318.464c6.417-1.126,12.535,3.157,13.67,9.574
		c0.555,3.166-0.205,6.434-2.108,9.028l0,0c3.857,5.257,2.722,12.638-2.534,16.495c-2.594,1.903-5.854,2.662-9.028,2.108l0,0
		c-3.345,6.383-11.238,8.849-17.63,5.495c-2.347-1.229-4.267-3.149-5.495-5.495l0,0c-6.417,1.126-12.535-3.157-13.67-9.574
		c-0.555-3.166,0.205-6.434,2.108-9.028l0,0c-3.857-5.257-2.722-12.638,2.534-16.495c2.594-1.903,5.854-2.662,9.028-2.108l0,0
		c3.345-6.383,11.238-8.849,17.63-5.495C221.747,314.197,223.667,316.117,224.896,318.464z"/>
	<path style="fill:#D68033;" d="M310.229,318.464L310.229,318.464c6.417-1.126,12.535,3.157,13.67,9.574
		c0.555,3.166-0.205,6.434-2.108,9.028l0,0c3.857,5.257,2.722,12.638-2.534,16.495c-2.594,1.903-5.854,2.662-9.028,2.108l0,0
		c-3.345,6.383-11.238,8.849-17.63,5.495c-2.347-1.229-4.267-3.149-5.495-5.495l0,0c-6.417,1.126-12.535-3.157-13.67-9.574
		c-0.555-3.166,0.205-6.434,2.108-9.028l0,0c-3.857-5.257-2.722-12.638,2.534-16.495c2.594-1.903,5.854-2.662,9.028-2.108l0,0
		c3.345-6.383,11.238-8.849,17.63-5.495C307.081,314.197,309.001,316.117,310.229,318.464z"/>
</g>
<g>
</g>
<g>
</g>
<g>
</g>
<g>
</g>
<g>
</g>
<g>
</g>
<g>
</g>
<g>
</g>
<g>
</g>
<g>
</g>
<g>
</g>
<g>
</g>
<g>
</g>
<g>
</g>
<g>
</g>
</svg>
