<?xml version="1.0" encoding="iso-8859-1"?>
<!-- Generator: Adobe Illustrator 19.0.0, SVG Export Plug-In . SVG Version: 6.00 Build 0)  -->
<svg version="1.1" id="Capa_1" xmlns="http://www.w3.org/2000/svg" xmlns:xlink="http://www.w3.org/1999/xlink" x="0px" y="0px"
	 viewBox="0 0 512.001 512.001" style="enable-background:new 0 0 512.001 512.001;" xml:space="preserve">
<path style="fill:#F09E3E;" d="M74.897,511.981L74.897,511.981C33.534,511.981,0,478.448,0,437.084l0,0l0,0
	c0-19.861,7.891-38.918,21.935-52.962L384.106,21.952C398.15,7.908,417.207,0.017,437.068,0.017l0,0
	c41.363,0,74.897,33.534,74.897,74.897l0,0l0,0c0,19.861-7.891,38.918-21.935,52.962L127.859,490.046
	C113.815,504.09,94.758,511.981,74.897,511.981z"/>
<path style="fill:#F09235;" d="M489.571,21.537L42.175,468.923c-6.956,6.947-14.926,12.79-23.639,17.336
	c27.099,31.177,74.341,34.478,105.509,7.371c1.324-1.148,2.604-2.348,3.849-3.584l362.171-362.171
	c29.235-29.226,29.253-76.618,0.026-105.862c-0.159-0.159-0.327-0.318-0.486-0.477L489.571,21.537z"/>
<g>
	<path style="fill:#D68033;" d="M420.667,79.459h55.99c-22.606,22.606-53.271,35.308-85.242,35.308h-55.99
		C358.031,92.161,388.696,79.459,420.667,79.459z"/>
	<path style="fill:#D68033;" d="M323.57,185.383h55.99c-22.606,22.606-53.271,35.308-85.242,35.308h-55.99
		C260.934,198.085,291.599,185.383,323.57,185.383z"/>
	<path style="fill:#D68033;" d="M217.647,291.307h55.99c-22.606,22.606-53.271,35.308-85.242,35.308h-55.99
		C155.011,304.009,185.675,291.307,217.647,291.307z"/>
	<path style="fill:#D68033;" d="M120.55,397.231h55.99c-22.606,22.606-53.271,35.308-85.242,35.308h-55.99
		C57.914,409.933,88.579,397.231,120.55,397.231z"/>
</g>
<g>
</g>
<g>
</g>
<g>
</g>
<g>
</g>
<g>
</g>
<g>
</g>
<g>
</g>
<g>
</g>
<g>
</g>
<g>
</g>
<g>
</g>
<g>
</g>
<g>
</g>
<g>
</g>
<g>
</g>
</svg>
