<?xml version="1.0" encoding="iso-8859-1"?>
<!-- Generator: Adobe Illustrator 19.0.0, SVG Export Plug-In . SVG Version: 6.00 Build 0)  -->
<svg version="1.1" id="Capa_1" xmlns="http://www.w3.org/2000/svg" xmlns:xlink="http://www.w3.org/1999/xlink" x="0px" y="0px"
	 viewBox="0 0 512 512" style="enable-background:new 0 0 512 512;" xml:space="preserve">
<path style="fill:#F0DBC2;" d="M317.793,0C210.538,0,123.586,86.952,123.586,194.207s86.952,194.207,194.207,194.207
	S512,301.462,512,194.207S425.048,0,317.793,0z M317.793,264.828c-39,0-70.621-31.62-70.621-70.621s31.62-70.621,70.621-70.621
	s70.621,31.62,70.621,70.621S356.793,264.828,317.793,264.828z"/>
<path style="fill:#EBD3B7;" d="M317.793,0C210.538,0,123.586,86.952,123.586,194.207s86.952,194.207,194.207,194.207
	S512,301.462,512,194.207S425.048,0,317.793,0z M317.793,264.828c-39,0-70.621-31.62-70.621-70.621s31.62-70.621,70.621-70.621
	s70.621,31.62,70.621,70.621S356.793,264.828,317.793,264.828z"/>
<path style="fill:#E6CCAF;" d="M386.357,210.847c-9.101,37.853-47.166,61.158-85.018,52.047
	c-10.999-2.648-21.204-7.901-29.74-15.316c-8.139,41.746-29.007,79.951-59.736,109.365c62.72,40.854,143.334,42.019,207.201,2.993
	C427.476,280.382,403.491,233.419,386.357,210.847z"/>
<path style="fill:#F09E3E;" d="M194.207,123.586C86.952,123.586,0,210.538,0,317.793S86.952,512,194.207,512
	s194.207-86.952,194.207-194.207S301.462,123.586,194.207,123.586z M194.207,388.414c-39,0-70.621-31.62-70.621-70.621
	s31.62-70.621,70.621-70.621s70.621,31.62,70.621,70.621S233.207,388.414,194.207,388.414z"/>
<path style="fill:#F09235;" d="M304.949,158.296c28.954,241.037-107.29,307.88-213.866,324.034
	c91.207,56.444,210.9,28.266,267.343-62.932C412.557,331.935,389.102,217.432,304.949,158.296z"/>
<g>
	<rect x="123.586" y="167.724" style="fill:#C96E23;" width="17.655" height="17.655"/>
	<rect x="158.897" y="203.034" style="fill:#C96E23;" width="17.655" height="17.655"/>
	<rect x="238.345" y="194.207" style="fill:#C96E23;" width="17.655" height="17.655"/>
	<rect x="308.966" y="211.862" style="fill:#C96E23;" width="17.655" height="17.655"/>
	<rect x="291.31" y="273.655" style="fill:#C96E23;" width="17.655" height="17.655"/>
	<rect x="335.448" y="326.621" style="fill:#C96E23;" width="17.655" height="17.655"/>
	<rect x="273.655" y="379.586" style="fill:#C96E23;" width="17.655" height="17.655"/>
	<rect x="176.552" y="459.034" style="fill:#C96E23;" width="17.655" height="17.655"/>
	<rect x="70.621" y="308.966" style="fill:#C96E23;" width="17.655" height="17.655"/>
	<rect x="247.172" y="450.207" style="fill:#C96E23;" width="17.655" height="17.655"/>
	<rect x="52.966" y="238.345" style="fill:#C96E23;" width="17.655" height="17.655"/>
	<rect x="52.966" y="388.414" style="fill:#C96E23;" width="17.655" height="17.655"/>
	<rect x="123.586" y="423.724" style="fill:#C96E23;" width="17.655" height="17.655"/>
</g>
<g>
</g>
<g>
</g>
<g>
</g>
<g>
</g>
<g>
</g>
<g>
</g>
<g>
</g>
<g>
</g>
<g>
</g>
<g>
</g>
<g>
</g>
<g>
</g>
<g>
</g>
<g>
</g>
<g>
</g>
</svg>
